<svg width="24" height="24" viewBox="0 0 24 24" fill="none" xmlns="http://www.w3.org/2000/svg">
<mask id="mask0_56_477" style="mask-type:alpha" maskUnits="userSpaceOnUse" x="0" y="0" width="24" height="24">
<rect width="24" height="24" fill="#D9D9D9"/>
</mask>
<g mask="url(#mask0_56_477)">
<path d="M13.55 12.475L16.75 10.325C17.05 10.125 17.2 9.85 17.2 9.5C17.2 9.15 17.05 8.875 16.75 8.675L13.55 6.525C13.2167 6.29167 12.875 6.275 12.525 6.475C12.175 6.675 12 6.975 12 7.375V11.625C12 12.025 12.175 12.325 12.525 12.525C12.875 12.725 13.2167 12.7083 13.55 12.475ZM8.99999 17C8.44999 17 7.97916 16.8042 7.58749 16.4125C7.19583 16.0208 6.99999 15.55 6.99999 15V4C6.99999 3.45 7.19583 2.97917 7.58749 2.5875C7.97916 2.19583 8.44999 2 8.99999 2H20C20.55 2 21.0208 2.19583 21.4125 2.5875C21.8042 2.97917 22 3.45 22 4V15C22 15.55 21.8042 16.0208 21.4125 16.4125C21.0208 16.8042 20.55 17 20 17H8.99999ZM8.99999 15H20V4H8.99999V15ZM5.69999 21.875C5.14999 21.9417 4.65416 21.8083 4.21249 21.475C3.77083 21.1417 3.51666 20.7 3.44999 20.15L2.12499 9.225C2.05833 8.675 2.19999 8.18333 2.54999 7.75C2.89999 7.31667 3.34999 7.05833 3.89999 6.975H3.94999C4.23333 6.925 4.48749 7 4.71249 7.2C4.93749 7.4 5.04999 7.65 5.04999 7.95C5.04999 8.2 4.96249 8.41667 4.78749 8.6C4.61249 8.78333 4.39999 8.9 4.14999 8.95H4.12499L5.47499 19.9L17.325 18.45C17.6083 18.4167 17.8583 18.4833 18.075 18.65C18.2917 18.8167 18.4167 19.0417 18.45 19.325C18.4833 19.6083 18.4167 19.8542 18.25 20.0625C18.0833 20.2708 17.8583 20.3917 17.575 20.425L5.69999 21.875Z" fill="white"/>
</g>
</svg>
