<svg width="24" height="24" viewBox="0 0 24 24" fill="none" xmlns="http://www.w3.org/2000/svg">
<mask id="mask0_56_353" style="mask-type:alpha" maskUnits="userSpaceOnUse" x="0" y="0" width="24" height="24">
<rect width="24" height="24" fill="#D9D9D9"/>
</mask>
<g mask="url(#mask0_56_353)">
<path d="M11.8228 7.05021C11.8228 7.13712 11.8314 7.23273 11.84 7.31964H9.40515C9.40515 7.31964 9.22447 7.21535 9.40515 7.03283L11.8228 7.05021Z" fill="white"/>
<path d="M13.4834 7.32839H12.3477C12.3391 7.24148 12.3305 7.14587 12.3305 7.05896L13.4576 7.06765C13.6813 7.16325 13.4834 7.32839 13.4834 7.32839Z" fill="white"/>
<path d="M9.17285 6.91116V3.33028C9.13844 3.33028 9.10402 3.33897 9.061 3.35636C8.93194 3.40851 8.88893 3.5128 8.8287 3.70401C8.75987 3.91261 8.67383 4.17335 8.3727 4.34718C8.21783 4.44279 8.04575 4.44279 7.88228 4.40802L8.91474 5.18156V6.91116H9.17285Z" fill="white"/>
<path d="M11.8228 6.91985L9.2589 6.91116V3.33028C9.32773 3.33897 9.37935 3.37374 9.44819 3.4172C9.54283 3.47804 9.65468 3.54757 9.81815 3.54757C9.88698 3.54757 10.0074 3.53888 10.1537 3.53019C10.7129 3.49542 11.8745 3.42589 12.2788 3.65187C12.6402 3.85177 12.8725 3.70401 13.0188 3.59972C13.1564 3.5128 13.165 3.52149 13.2081 3.56495C13.3199 3.69532 13.3543 3.73878 12.9585 4.55578C12.9413 4.58185 12.9327 4.61662 12.9499 4.68615C12.296 5.20764 11.8573 6.01594 11.8228 6.91985Z" fill="white"/>
<path d="M14.7653 6.93721L12.3305 6.92852C12.3649 6.20713 12.7004 5.56396 13.2253 5.13808C13.3715 5.33798 13.578 5.59873 13.8963 5.96377C14.1889 6.31142 14.5158 6.66777 14.7653 6.93721Z" fill="white"/>
<path d="M17.725 9.16224C17.6734 9.04925 17.5358 8.80589 17.3379 8.48431C17.2002 8.73636 17.0195 8.97103 16.813 9.17093C17.4927 10.3704 17.8541 11.6567 18.0864 12.6301C18.465 14.2728 17.8713 18.6794 17.8713 18.6794L18.2499 20.6784C20.2029 12.3868 17.725 9.16224 17.725 9.16224ZM14.9116 4.58184C14.86 4.58184 14.8083 4.57315 14.7567 4.57315C14.2319 4.57315 13.7501 4.73829 13.3543 5.02511C13.7931 5.62482 14.7481 6.69387 15.1955 7.14582C15.729 7.60647 16.1764 8.14534 16.5377 8.71028C16.7442 8.493 16.9077 8.23225 17.0195 7.95413C16.4259 6.98068 15.5741 5.63351 14.9116 4.58184ZM14.5846 4.06905C14.1889 3.43457 13.9135 3 13.9135 3H8.6222C7.7102 3 7.36605 3.1043 7.36605 3.92129L7.44348 3.99083C7.68439 4.19073 8.00273 4.37325 8.28665 4.19942C8.53617 4.05167 8.605 3.85176 8.66522 3.65186C8.72545 3.46934 8.78568 3.27813 9.00077 3.19121C9.061 3.16514 9.10402 3.15645 9.19866 3.15645C9.31051 3.15645 9.45677 3.21729 9.53421 3.26943C9.62025 3.32158 9.69768 3.37373 9.81813 3.37373C9.87836 3.37373 9.99881 3.36504 10.1451 3.35635C10.7646 3.31289 11.9175 3.25205 12.3649 3.49541C12.6402 3.64317 12.7864 3.54756 12.9327 3.45196C13.0446 3.38242 13.1994 3.28682 13.3457 3.45196C13.5264 3.66924 13.5092 3.8083 13.165 4.53839C13.578 4.26895 14.0684 4.10381 14.5846 4.06905Z" fill="white"/>
<path d="M11.84 7.41524C11.8916 7.80635 12.0121 8.1714 12.2014 8.50167H9.41374L9.40514 7.41524H11.84Z" fill="white"/>
<path d="M13.3715 7.41524V8.50167H12.8123C12.58 8.18878 12.4165 7.81505 12.3563 7.41524H13.3715Z" fill="white"/>
<path d="M5.17208 13.9338H17.7422C17.8369 13.9338 17.9143 14.0121 17.9143 14.1077V14.9507C17.9143 15.0464 17.8369 15.1246 17.7422 15.1246H5.17208C5.07743 15.1246 5 15.0464 5 14.9507V14.1077C5 14.0121 5.07743 13.9338 5.17208 13.9338Z" fill="white"/>
<path d="M15.0837 9.47514C14.9804 9.49252 14.8772 9.50121 14.7653 9.50121C14.0082 9.50121 13.3285 9.15355 12.8811 8.5973H13.3715V8.60599C13.9824 8.80589 14.5588 9.1014 15.0837 9.47514Z" fill="white"/>
<path d="M17.6648 13.76H5.2237C5.55924 11.3612 7.21118 9.37084 9.41375 8.60599V8.5973H12.2616C12.7778 9.44906 13.7157 10.014 14.7739 10.014C15.0665 10.014 15.3418 9.97055 15.6085 9.89233C16.7012 10.8745 17.4497 12.2303 17.6648 13.76Z" fill="white"/>
<path d="M5.18928 15.2984C5.50762 18.5056 8.1834 21 11.4442 21C14.6965 21 17.3809 18.4969 17.6992 15.2984H5.18928Z" fill="white"/>
<path d="M14.7653 4.23418C14.7395 4.23418 14.7223 4.23418 14.6965 4.23418C14.1287 4.25157 13.6038 4.43409 13.1736 4.73829C13.1306 4.77305 13.079 4.80782 13.036 4.84259C12.4251 5.338 12.0293 6.07677 11.9949 6.91984C11.9949 6.95461 11.9949 6.99807 11.9949 7.03283V7.05021C11.9949 7.14582 12.0035 7.23273 12.0121 7.31965C12.0121 7.35441 12.0207 7.38049 12.0207 7.41525C12.0723 7.80637 12.21 8.1801 12.4079 8.50169C12.4251 8.52776 12.4423 8.56253 12.4595 8.5886C12.9585 9.33607 13.8017 9.83148 14.7653 9.83148C14.9976 9.83148 15.2213 9.8054 15.445 9.74456C15.9355 9.62288 16.3829 9.36214 16.727 9.00579C16.9335 8.79719 17.1056 8.56253 17.2346 8.30178C17.4239 7.91936 17.5358 7.48479 17.5358 7.03283C17.5358 5.49444 16.2968 4.23418 14.7653 4.23418ZM17.1314 8.13664C17.0109 8.40608 16.8389 8.65813 16.6324 8.86673C16.271 9.24915 15.7978 9.51859 15.2644 9.62288C15.1009 9.65765 14.9288 9.67503 14.7567 9.67503C13.8964 9.67503 13.1306 9.24915 12.6574 8.60598C12.6316 8.57991 12.6144 8.54514 12.5972 8.51907C12.3821 8.19748 12.2358 7.83244 12.1756 7.43264C12.167 7.39787 12.167 7.3718 12.167 7.33703C12.1584 7.25012 12.1498 7.15451 12.1498 7.0676V7.05021C12.1498 7.01545 12.1498 6.97199 12.1498 6.93722C12.1842 6.15499 12.5542 5.46837 13.1134 5.00772C13.1564 4.97296 13.1994 4.93819 13.2511 4.90343C13.6727 4.59922 14.1889 4.4254 14.7481 4.4254C14.7653 4.4254 14.7739 4.4254 14.7911 4.4254C16.2108 4.45147 17.3551 5.61612 17.3551 7.05021C17.3637 7.43264 17.2863 7.79768 17.1314 8.13664Z" fill="white"/>
</g>
</svg>
