<svg width="24" height="24" viewBox="0 0 24 24" fill="none" xmlns="http://www.w3.org/2000/svg">
<mask id="mask0_239_17" style="mask-type:alpha" maskUnits="userSpaceOnUse" x="0" y="0" width="24" height="24">
<rect width="24" height="24" fill="#D9D9D9"/>
</mask>
<g mask="url(#mask0_239_17)">
<path d="M7.825 12L11.7 15.9C11.8833 16.0833 11.9792 16.3125 11.9875 16.5875C11.9958 16.8625 11.9 17.1 11.7 17.3C11.5167 17.4833 11.2833 17.575 11 17.575C10.7167 17.575 10.4833 17.4833 10.3 17.3L5.7 12.7C5.6 12.6 5.52917 12.4917 5.4875 12.375C5.44584 12.2583 5.425 12.1333 5.425 12C5.425 11.8667 5.44584 11.7417 5.4875 11.625C5.52917 11.5083 5.6 11.4 5.7 11.3L10.3 6.69999C10.4833 6.51665 10.7125 6.42082 10.9875 6.41249C11.2625 6.40415 11.5 6.49999 11.7 6.69999C11.8833 6.88332 11.975 7.11665 11.975 7.39999C11.975 7.68332 11.8833 7.91665 11.7 8.09999L7.825 12ZM14.425 12L18.3 15.9C18.4833 16.0833 18.5792 16.3125 18.5875 16.5875C18.5958 16.8625 18.5 17.1 18.3 17.3C18.1167 17.4833 17.8833 17.575 17.6 17.575C17.3167 17.575 17.0833 17.4833 16.9 17.3L12.3 12.7C12.2 12.6 12.1292 12.4917 12.0875 12.375C12.0458 12.2583 12.025 12.1333 12.025 12C12.025 11.8667 12.0458 11.7417 12.0875 11.625C12.1292 11.5083 12.2 11.4 12.3 11.3L16.9 6.69999C17.0833 6.51665 17.3125 6.42082 17.5875 6.41249C17.8625 6.40415 18.1 6.49999 18.3 6.69999C18.4833 6.88332 18.575 7.11665 18.575 7.39999C18.575 7.68332 18.4833 7.91665 18.3 8.09999L14.425 12Z" fill="white"/>
</g>
</svg>
