<svg width="24" height="24" viewBox="0 0 24 24" fill="none" xmlns="http://www.w3.org/2000/svg">
<g clip-path="url(#clip0_56_315)">
<mask id="mask0_56_315" style="mask-type:alpha" maskUnits="userSpaceOnUse" x="0" y="0" width="24" height="24">
<rect width="24" height="24" fill="#D9D9D9"/>
</mask>
<g mask="url(#mask0_56_315)">
<path d="M4.16667 19C3.52233 19 3 18.4777 3 17.8333C3 17.189 3.52233 16.6667 4.16667 16.6667H19.8333C20.4777 16.6667 21 17.189 21 17.8333C21 18.4777 20.4777 19 19.8333 19H4.16667ZM4.16667 13.1667C3.52233 13.1667 3 12.6443 3 12C3 11.3557 3.52233 10.8333 4.16667 10.8333H19.8333C20.4777 10.8333 21 11.3557 21 12C21 12.6443 20.4777 13.1667 19.8333 13.1667H4.16667ZM4.16667 7.33333C3.52233 7.33333 3 6.811 3 6.16667C3 5.52233 3.52233 5 4.16667 5H19.8333C20.4777 5 21 5.52233 21 6.16667C21 6.811 20.4777 7.33333 19.8333 7.33333H4.16667Z" fill="white"/>
</g>
</g>
<defs>
<clipPath id="clip0_56_315">
<rect width="24" height="24" fill="white"/>
</clipPath>
</defs>
</svg>
