<svg width="24" height="24" viewBox="0 0 24 24" fill="none" xmlns="http://www.w3.org/2000/svg">
<mask id="mask0_56_318" style="mask-type:alpha" maskUnits="userSpaceOnUse" x="0" y="0" width="24" height="24">
<rect width="24" height="24" fill="#D9D9D9"/>
</mask>
<g mask="url(#mask0_56_318)">
<path d="M19 19.8333C19 20.4777 18.4777 21 17.8333 21C17.189 21 16.6667 20.4777 16.6667 19.8333V4.16667C16.6667 3.52233 17.189 3 17.8333 3C18.4777 3 19 3.52234 19 4.16667V19.8333ZM13.1667 19.8333C13.1667 20.4777 12.6443 21 12 21C11.3557 21 10.8333 20.4777 10.8333 19.8333V4.16667C10.8333 3.52233 11.3557 3 12 3C12.6443 3 13.1667 3.52234 13.1667 4.16667L13.1667 19.8333ZM7.33333 19.8333C7.33333 20.4777 6.811 21 6.16667 21C5.52233 21 5 20.4777 5 19.8333L5 4.16667C5 3.52233 5.52233 3 6.16667 3C6.811 3 7.33333 3.52234 7.33333 4.16667L7.33333 19.8333Z" fill="white"/>
</g>
</svg>
