<svg width="24" height="24" viewBox="0 0 24 24" fill="none" xmlns="http://www.w3.org/2000/svg">
<mask id="mask0_56_222" style="mask-type:alpha" maskUnits="userSpaceOnUse" x="0" y="0" width="24" height="24">
<rect width="24" height="24" fill="#D9D9D9"/>
</mask>
<g mask="url(#mask0_56_222)">
<path d="M12 20.0582C14.0333 18.2229 15.5417 16.5556 16.525 15.0563C17.5083 13.5569 18 12.2255 18 11.0621C18 9.27598 17.4208 7.8135 16.2625 6.67464C15.1042 5.53579 13.6833 4.96636 12 4.96636C10.3167 4.96636 8.89583 5.53579 7.7375 6.67464C6.57917 7.8135 6 9.27598 6 11.0621C6 12.2255 6.49167 13.5569 7.475 15.0563C8.45833 16.5556 9.96667 18.2229 12 20.0582ZM12 22C11.7667 22 11.5333 21.959 11.3 21.8771C11.0667 21.7952 10.8583 21.6723 10.675 21.5084C9.59167 20.5252 8.63333 19.5666 7.8 18.6326C6.96667 17.6986 6.27083 16.7932 5.7125 15.9166C5.15417 15.0399 4.72917 14.196 4.4375 13.3849C4.14583 12.5737 4 11.7995 4 11.0621C4 8.60414 4.80417 6.64597 6.4125 5.18758C8.02083 3.72919 9.88333 3 12 3C14.1167 3 15.9792 3.72919 17.5875 5.18758C19.1958 6.64597 20 8.60414 20 11.0621C20 11.7995 19.8542 12.5737 19.5625 13.3849C19.2708 14.196 18.8458 15.0399 18.2875 15.9166C17.7292 16.7932 17.0333 17.6986 16.2 18.6326C15.3667 19.5666 14.4083 20.5252 13.325 21.5084C13.1417 21.6723 12.9333 21.7952 12.7 21.8771C12.4667 21.959 12.2333 22 12 22ZM12 12.8318C12.55 12.8318 13.0208 12.6393 13.4125 12.2542C13.8042 11.8691 14 11.4062 14 10.8655C14 10.3247 13.8042 9.86179 13.4125 9.47671C13.0208 9.09163 12.55 8.89909 12 8.89909C11.45 8.89909 10.9792 9.09163 10.5875 9.47671C10.1958 9.86179 10 10.3247 10 10.8655C10 11.4062 10.1958 11.8691 10.5875 12.2542C10.9792 12.6393 11.45 12.8318 12 12.8318Z" fill="white"/>
</g>
</svg>
