<svg width="24" height="24" viewBox="0 0 24 24" fill="none" xmlns="http://www.w3.org/2000/svg">
<path d="M11.995 22.01C10.8112 22.01 9.69763 21.7801 8.65442 21.3202C7.61122 20.8604 6.70339 20.2346 5.93094 19.4429C5.15849 18.6511 4.54531 17.7207 4.0914 16.6514C3.63748 15.5822 3.41053 14.4369 3.41053 13.2155C3.41053 11.9942 3.63748 10.8501 4.0914 9.7833C4.54531 8.71668 5.15849 7.78482 5.93094 6.98771C6.70339 6.19044 7.61122 5.56196 8.65442 5.10227C9.69763 4.64242 10.8112 4.41249 11.995 4.41249C13.179 4.41249 14.2926 4.64242 15.3358 5.10227C16.379 5.56196 17.2895 6.19044 18.0672 6.98771C18.8449 7.78482 19.458 8.71668 19.9067 9.7833C20.3554 10.8501 20.5797 11.9942 20.5797 13.2155C20.5797 14.4369 20.3554 15.5822 19.9067 16.6514C19.458 17.7207 18.8449 18.6511 18.0672 19.4429C17.2895 20.2346 16.379 20.8604 15.3358 21.3202C14.2926 21.7801 13.179 22.01 11.995 22.01ZM14.2428 16.6578C14.556 16.9788 15.0721 16.9788 15.3852 16.6578C15.6877 16.3478 15.6877 15.8532 15.3852 15.5432L13.1235 13.225C12.9413 13.0382 12.8393 12.7876 12.8393 12.5267V9.12667C12.8393 8.68684 12.4827 8.33029 12.0429 8.33029C11.6031 8.33029 11.2465 8.68684 11.2465 9.12667V13.1797C11.2465 13.4407 11.3485 13.6913 11.5307 13.8781L14.2428 16.6578ZM5.16433 3.35157C5.47877 3.03706 5.9896 3.04017 6.30018 3.3585C6.60533 3.67126 6.60228 4.17126 6.29334 4.48029L3.45637 7.31797C3.14194 7.63248 2.6311 7.62936 2.32053 7.31104C2.01537 6.99827 2.01842 6.49827 2.32737 6.18925L5.16433 3.35157ZM17.6899 3.35856C18.0004 3.04021 18.5112 3.03707 18.8256 3.35157L21.6627 6.18936C21.9716 6.49833 21.9747 6.99823 21.6696 7.31098C21.3591 7.62933 20.8483 7.63247 20.5338 7.31796L17.6968 4.48017C17.3879 4.1712 17.3848 3.6713 17.6899 3.35856ZM11.9957 20.3775C13.9437 20.3775 15.5959 19.6822 16.9522 18.2915C18.3087 16.9007 18.9869 15.207 18.9869 13.2104C18.9869 11.2139 18.3085 9.52056 16.9517 8.13024C15.5948 6.74007 13.9423 6.04499 11.9943 6.04499C10.0464 6.04499 8.39426 6.74032 7.03778 8.13097C5.68145 9.52179 5.00329 11.2154 5.00329 13.2119C5.00329 15.2085 5.68169 16.9018 7.03849 18.292C8.39545 19.6823 10.0479 20.3775 11.9957 20.3775Z" fill="white"/>
</svg>
