<svg width="24" height="24" viewBox="0 0 24 24" fill="none" xmlns="http://www.w3.org/2000/svg">
<mask id="mask0_56_212" style="mask-type:alpha" maskUnits="userSpaceOnUse" x="0" y="0" width="24" height="24">
<rect width="24" height="24" fill="#D9D9D9"/>
</mask>
<g mask="url(#mask0_56_212)">
<path d="M8 22C7.71667 22 7.47917 21.9042 7.2875 21.7125C7.09583 21.5208 7 21.2833 7 21V5C7 4.71667 7.09583 4.47917 7.2875 4.2875C7.47917 4.09583 7.71667 4 8 4H10V3C10 2.71667 10.0958 2.47917 10.2875 2.2875C10.4792 2.09583 10.7167 2 11 2H13C13.2833 2 13.5208 2.09583 13.7125 2.2875C13.9042 2.47917 14 2.71667 14 3V4H16C16.2833 4 16.5208 4.09583 16.7125 4.2875C16.9042 4.47917 17 4.71667 17 5V21C17 21.2833 16.9042 21.5208 16.7125 21.7125C16.5208 21.9042 16.2833 22 16 22H8Z" fill="white"/>
</g>
</svg>
