<svg width="24" height="24" viewBox="0 0 24 24" fill="none" xmlns="http://www.w3.org/2000/svg">
<mask id="mask0_56_312" style="mask-type:alpha" maskUnits="userSpaceOnUse" x="0" y="0" width="24" height="24">
<rect width="24" height="24" fill="#D9D9D9"/>
</mask>
<g mask="url(#mask0_56_312)">
<path d="M3.7 10.4279C3.7 11.357 3.8625 12.246 4.1875 13.095C4.5125 13.9439 4.975 14.7288 5.575 15.4497C5.725 15.6259 5.8 15.8261 5.8 16.0503C5.8 16.2746 5.71667 16.4668 5.55 16.627C5.38333 16.7872 5.17917 16.8633 4.9375 16.8553C4.69583 16.8473 4.5 16.7551 4.35 16.5789C3.6 15.714 3.02083 14.7569 2.6125 13.7077C2.20417 12.6585 2 11.5652 2 10.4279C2 9.29062 2.20417 8.19737 2.6125 7.14817C3.02083 6.09897 3.6 5.14188 4.35 4.27689C4.5 4.10069 4.69583 4.00858 4.9375 4.00057C5.17917 3.99256 5.38333 4.06865 5.55 4.22883C5.71667 4.38902 5.8 4.58124 5.8 4.80549C5.8 5.02975 5.725 5.22998 5.575 5.40618C4.975 6.127 4.5125 6.9119 4.1875 7.76087C3.8625 8.60984 3.7 9.49886 3.7 10.4279ZM7 10.4279C7 10.9405 7.075 11.4291 7.225 11.8936C7.375 12.3581 7.6 12.7986 7.9 13.2151C8.03333 13.3913 8.1 13.5955 8.1 13.8278C8.1 14.0601 8.01667 14.2563 7.85 14.4165C7.68333 14.5767 7.48333 14.6568 7.25 14.6568C7.01667 14.6568 6.83333 14.5687 6.7 14.3924C6.25 13.8318 5.90417 13.2111 5.6625 12.5303C5.42083 11.8495 5.3 11.1487 5.3 10.4279C5.3 9.70709 5.42083 9.00629 5.6625 8.32551C5.90417 7.64474 6.25 7.02403 6.7 6.46339C6.83333 6.28719 7.01667 6.19908 7.25 6.19908C7.48333 6.19908 7.68333 6.27918 7.85 6.43936C8.01667 6.59954 8.1 6.79577 8.1 7.02803C8.1 7.2603 8.03333 7.46453 7.9 7.64073C7.6 8.05721 7.375 8.49771 7.225 8.96224C7.075 9.42677 7 9.91533 7 10.4279ZM11 20.0389V12.6384C10.55 12.4462 10.1875 12.1499 9.9125 11.7494C9.6375 11.349 9.5 10.9085 9.5 10.4279C9.5 9.75515 9.74167 9.1865 10.225 8.72197C10.7083 8.25744 11.3 8.02517 12 8.02517C12.7 8.02517 13.2917 8.25744 13.775 8.72197C14.2583 9.1865 14.5 9.75515 14.5 10.4279C14.5 10.9085 14.3625 11.349 14.0875 11.7494C13.8125 12.1499 13.45 12.4462 13 12.6384V20.0389C13 20.3112 12.9042 20.5395 12.7125 20.7237C12.5208 20.9079 12.2833 21 12 21C11.7167 21 11.4792 20.9079 11.2875 20.7237C11.0958 20.5395 11 20.3112 11 20.0389ZM17 10.4279C17 9.91533 16.925 9.42677 16.775 8.96224C16.625 8.49771 16.4 8.05721 16.1 7.64073C15.9667 7.46453 15.9 7.2603 15.9 7.02803C15.9 6.79577 15.9833 6.59954 16.15 6.43936C16.3167 6.27918 16.5167 6.19908 16.75 6.19908C16.9833 6.19908 17.1667 6.28719 17.3 6.46339C17.75 7.02403 18.0958 7.64474 18.3375 8.32551C18.5792 9.00629 18.7 9.70709 18.7 10.4279C18.7 11.1487 18.5792 11.8495 18.3375 12.5303C18.0958 13.2111 17.75 13.8318 17.3 14.3924C17.1667 14.5687 16.9833 14.6568 16.75 14.6568C16.5167 14.6568 16.3167 14.5767 16.15 14.4165C15.9833 14.2563 15.9 14.0601 15.9 13.8278C15.9 13.5955 15.9667 13.3913 16.1 13.2151C16.4 12.7986 16.625 12.3581 16.775 11.8936C16.925 11.4291 17 10.9405 17 10.4279ZM20.3 10.4279C20.3 9.49886 20.1375 8.60984 19.8125 7.76087C19.4875 6.9119 19.025 6.127 18.425 5.40618C18.275 5.22998 18.2 5.02975 18.2 4.80549C18.2 4.58124 18.2833 4.38902 18.45 4.22883C18.6167 4.06865 18.8208 3.99256 19.0625 4.00057C19.3042 4.00858 19.5 4.10069 19.65 4.27689C20.4 5.14188 20.9792 6.09897 21.3875 7.14817C21.7958 8.19737 22 9.29062 22 10.4279C22 11.5652 21.7958 12.6585 21.3875 13.7077C20.9792 14.7569 20.4 15.714 19.65 16.5789C19.5 16.7551 19.3042 16.8473 19.0625 16.8553C18.8208 16.8633 18.6167 16.7872 18.45 16.627C18.2833 16.4668 18.2 16.2746 18.2 16.0503C18.2 15.8261 18.275 15.6259 18.425 15.4497C19.025 14.7288 19.4875 13.9439 19.8125 13.095C20.1375 12.246 20.3 11.357 20.3 10.4279Z" fill="white"/>
</g>
</svg>
