<svg width="24" height="24" viewBox="0 0 24 24" fill="none" xmlns="http://www.w3.org/2000/svg">
<path d="M18.2883 18.2683C17.8993 18.6573 17.271 18.6573 16.882 18.2683L12.005 13.4013L7.12797 18.2783C6.73901 18.6672 6.11068 18.6672 5.72172 18.2783C5.33275 17.8893 5.33275 17.261 5.72172 16.872L10.5987 11.995L5.72172 7.11798C5.33275 6.72902 5.33275 6.10069 5.72172 5.71172C6.11068 5.32276 6.73901 5.32276 7.12797 5.71172L12.005 10.5887L16.882 5.71172C17.271 5.32276 17.8993 5.32276 18.2883 5.71172C18.6772 6.10069 18.6772 6.72902 18.2883 7.11798L13.4112 11.995L18.2883 16.872C18.6673 17.251 18.6673 17.8893 18.2883 18.2683Z" fill="white"/>
</svg>
