<svg width="24" height="24" viewBox="0 0 24 24" fill="none" xmlns="http://www.w3.org/2000/svg">
<mask id="mask0_56_178" style="mask-type:alpha" maskUnits="userSpaceOnUse" x="0" y="0" width="24" height="24">
<rect width="24" height="24" fill="#D9D9D9"/>
</mask>
<g mask="url(#mask0_56_178)">
<path d="M5.04251 22C4.48192 22 4.00202 21.8042 3.60282 21.4125C3.20361 21.0209 3.004 20.5501 3.004 20.0002V16.0005C3.004 15.4506 3.20361 14.9798 3.60282 14.5881C4.00202 14.1965 4.48192 14.0007 5.04251 14.0007H19.3121C19.8727 14.0007 20.3526 14.1965 20.7518 14.5881C21.151 14.9798 21.3506 15.4506 21.3506 16.0005V20.0002C21.3506 20.5501 21.151 21.0209 20.7518 21.4125C20.3526 21.8042 19.8727 22 19.3121 22H5.04251ZM5.04251 20.0002H19.3121V16.0005H5.04251V20.0002ZM11.0051 6.30133L12.9927 2.85162C13.0776 2.70164 13.1965 2.59331 13.3494 2.52665C13.5023 2.45999 13.6552 2.44333 13.8081 2.47666C13.961 2.50999 14.0926 2.57248 14.2031 2.66414C14.3135 2.7558 14.3857 2.89329 14.4197 3.07661L15.0822 7.00127L19.0063 5.95136C19.1932 5.90136 19.3588 5.90136 19.5032 5.95136C19.6476 6.00136 19.7622 6.09302 19.8472 6.22634C19.9321 6.35966 19.9746 6.50131 19.9746 6.6513C19.9746 6.80129 19.9236 6.95127 19.8217 7.10126L17.4774 10.351L18.2164 10.7759C18.4542 10.9093 18.6113 11.1093 18.6878 11.3759C18.7642 11.6425 18.7345 11.8925 18.5986 12.1258C18.4627 12.3591 18.2588 12.5133 17.987 12.5883C17.7152 12.6633 17.4604 12.6341 17.2226 12.5008L15.4899 11.5509C15.2181 11.4009 15.0482 11.1801 14.9802 10.8884C14.9123 10.5968 14.9717 10.3343 15.1586 10.101L16.1014 8.80112L13.4514 9.52606L12.9927 6.87628L11.6677 9.20108L9.42531 7.65122L10.1643 10.251L7.46324 10.701L7.59065 10.7759C7.82847 10.9093 7.98561 11.1093 8.06205 11.3759C8.1385 11.6425 8.10877 11.8925 7.97287 12.1258C7.83697 12.3591 7.63312 12.5133 7.36132 12.5883C7.08952 12.6633 6.8347 12.6341 6.59688 12.5008L3.33526 10.701C3.18237 10.6176 3.0762 10.501 3.01675 10.351C2.95729 10.201 2.94455 10.051 2.97852 9.90102C3.0125 9.75104 3.0762 9.62188 3.16963 9.51356C3.26307 9.40523 3.40321 9.3344 3.59008 9.30107L7.59065 8.65113L6.52043 4.80146C6.46947 4.61814 6.46947 4.45565 6.52043 4.314C6.57139 4.17235 6.66483 4.05986 6.80073 3.97653C6.93663 3.8932 7.08102 3.85154 7.23391 3.85154C7.3868 3.85154 7.53969 3.90154 7.69257 4.00153L11.0051 6.30133Z" fill="white"/>
</g>
</svg>
