<svg width="24" height="24" viewBox="0 0 24 24" fill="none" xmlns="http://www.w3.org/2000/svg">
<mask id="mask0_56_197" style="mask-type:alpha" maskUnits="userSpaceOnUse" x="0" y="0" width="24" height="24">
<rect width="24" height="24" fill="#D9D9D9"/>
</mask>
<g mask="url(#mask0_56_197)">
<path d="M11.9983 20.96C9.48213 20.96 7.35336 20.0893 5.61202 18.348C3.87067 16.6066 3 14.4779 3 11.9617C3 9.6621 3.74986 7.66663 5.24958 5.97528C6.7493 4.28393 8.66561 3.29661 10.9985 3.01333C11.2151 2.98 11.4068 3.00916 11.5734 3.10081C11.74 3.19246 11.8734 3.31328 11.9733 3.46325C12.0733 3.61322 12.1275 3.78819 12.1358 3.98815C12.1441 4.18811 12.0816 4.37974 11.9483 4.56304C11.6651 4.9963 11.4526 5.45454 11.311 5.93779C11.1693 6.42103 11.0985 6.92927 11.0985 7.4625C11.0985 8.96223 11.6234 10.237 12.6732 11.2868C13.723 12.3366 14.9978 12.8615 16.4975 12.8615C17.0141 12.8615 17.5265 12.7865 18.0347 12.6365C18.5429 12.4866 18.997 12.2783 19.397 12.0117C19.5803 11.895 19.7677 11.8409 19.9594 11.8492C20.151 11.8575 20.3218 11.9033 20.4718 11.9867C20.6384 12.07 20.7675 12.195 20.8592 12.3616C20.9508 12.5282 20.98 12.7282 20.9467 12.9615C20.7134 15.2611 19.7344 17.169 18.0097 18.6854C16.285 20.2018 14.2812 20.96 11.9983 20.96ZM11.9983 18.9604C13.4647 18.9604 14.7811 18.5563 15.9476 17.7481C17.114 16.9399 17.9639 15.8859 18.4971 14.5862C18.1639 14.6695 17.8306 14.7362 17.4973 14.7861C17.164 14.8361 16.8308 14.8611 16.4975 14.8611C14.4479 14.8611 12.7024 14.1404 11.261 12.699C9.81957 11.2576 9.09887 9.51212 9.09887 7.4625C9.09887 7.12923 9.12386 6.79596 9.17385 6.46269C9.22384 6.12942 9.2905 5.79615 9.37382 5.46288C8.07406 5.99611 7.02009 6.84595 6.2119 8.0124C5.40372 9.17885 4.99963 10.4953 4.99963 11.9617C4.99963 13.8946 5.68284 15.5443 7.04925 16.9107C8.41566 18.2772 10.0654 18.9604 11.9983 18.9604Z" fill="white"/>
</g>
</svg>
