<svg width="24" height="24" viewBox="0 0 24 24" fill="none" xmlns="http://www.w3.org/2000/svg">
<mask id="mask0_56_240" style="mask-type:alpha" maskUnits="userSpaceOnUse" x="0" y="0" width="24" height="24">
<rect width="24" height="24" fill="#D9D9D9"/>
</mask>
<g mask="url(#mask0_56_240)">
<path d="M12 23C10.75 23 9.57917 22.7575 8.4875 22.2724C7.39583 21.7873 6.44583 21.132 5.6375 20.3064C4.82917 19.4809 4.1875 18.5107 3.7125 17.3959C3.2375 16.281 3 15.0853 3 13.8087C3 12.5322 3.2375 11.3365 3.7125 10.2216C4.1875 9.10672 4.82917 8.13653 5.6375 7.31102C6.44583 6.48551 7.39583 5.8302 8.4875 5.34511C9.57917 4.86002 10.75 4.61747 12 4.61747H12.15L11.3 3.7494C11.1 3.54515 11.0042 3.30686 11.0125 3.03453C11.0208 2.76219 11.1167 2.5239 11.3 2.31965C11.5 2.1154 11.7375 2.00902 12.0125 2.00051C12.2875 1.992 12.525 2.08987 12.725 2.29412L15.3 4.92384C15.5 5.12809 15.6 5.36639 15.6 5.63872C15.6 5.91105 15.5 6.14935 15.3 6.3536L12.725 8.98332C12.525 9.18757 12.2875 9.28544 12.0125 9.27693C11.7375 9.26842 11.5 9.16204 11.3 8.95779C11.1167 8.75354 11.0208 8.51525 11.0125 8.24291C11.0042 7.97058 11.1 7.73229 11.3 7.52804L12.15 6.65997H12C10.05 6.65997 8.39583 7.35357 7.0375 8.74077C5.67917 10.128 5 11.8173 5 13.8087C5 15.8002 5.67917 17.4895 7.0375 18.8767C8.39583 20.2639 10.05 20.9575 12 20.9575C13.95 20.9575 15.6042 20.2639 16.9625 18.8767C18.3208 17.4895 19 15.8002 19 13.8087C19 13.5194 19.0958 13.2768 19.2875 13.0811C19.4792 12.8854 19.7167 12.7875 20 12.7875C20.2833 12.7875 20.5208 12.8854 20.7125 13.0811C20.9042 13.2768 21 13.5194 21 13.8087C21 15.0853 20.7625 16.281 20.2875 17.3959C19.8125 18.5107 19.1708 19.4809 18.3625 20.3064C17.5542 21.132 16.6042 21.7873 15.5125 22.2724C14.4208 22.7575 13.25 23 12 23ZM9 12.2769H8.25C8.03333 12.2769 7.85417 12.2045 7.7125 12.0598C7.57083 11.9152 7.5 11.7322 7.5 11.5109C7.5 11.2896 7.57083 11.1067 7.7125 10.962C7.85417 10.8173 8.03333 10.745 8.25 10.745H9.75C9.96667 10.745 10.1458 10.8173 10.2875 10.962C10.4292 11.1067 10.5 11.2896 10.5 11.5109V16.1066C10.5 16.3278 10.4292 16.5108 10.2875 16.6555C10.1458 16.8002 9.96667 16.8725 9.75 16.8725C9.53333 16.8725 9.35417 16.8002 9.2125 16.6555C9.07083 16.5108 9 16.3278 9 16.1066V12.2769ZM12.5 16.8725C12.2167 16.8725 11.9792 16.7746 11.7875 16.5789C11.5958 16.3831 11.5 16.1406 11.5 15.8512V11.7662C11.5 11.4769 11.5958 11.2343 11.7875 11.0386C11.9792 10.8428 12.2167 10.745 12.5 10.745H14.5C14.7833 10.745 15.0208 10.8428 15.2125 11.0386C15.4042 11.2343 15.5 11.4769 15.5 11.7662V15.8512C15.5 16.1406 15.4042 16.3831 15.2125 16.5789C15.0208 16.7746 14.7833 16.8725 14.5 16.8725H12.5ZM13 15.3406H14V12.2769H13V15.3406Z" fill="white"/>
</g>
</svg>
