<svg width="24" height="24" viewBox="0 0 24 24" fill="none" xmlns="http://www.w3.org/2000/svg">
<mask id="mask0_56_430" style="mask-type:alpha" maskUnits="userSpaceOnUse" x="0" y="0" width="24" height="24">
<rect width="24" height="24" fill="#D9D9D9"/>
</mask>
<g mask="url(#mask0_56_430)">
<path d="M12 12C11.15 12 10.4375 11.7125 9.8625 11.1375C9.2875 10.5625 9 9.85 9 9C9 8.16667 9.2875 7.45833 9.8625 6.875C10.4375 6.29167 11.15 6 12 6C12.8333 6 13.5417 6.29167 14.125 6.875C14.7083 7.45833 15 8.16667 15 9C15 9.85 14.7083 10.5625 14.125 11.1375C13.5417 11.7125 12.8333 12 12 12ZM12 10C12.2833 10 12.5208 9.90417 12.7125 9.7125C12.9042 9.52083 13 9.28333 13 9C13 8.71667 12.9042 8.47917 12.7125 8.2875C12.5208 8.09583 12.2833 8 12 8C11.7167 8 11.4792 8.09583 11.2875 8.2875C11.0958 8.47917 11 8.71667 11 9C11 9.28333 11.0958 9.52083 11.2875 9.7125C11.4792 9.90417 11.7167 10 12 10ZM6 17V16.1C6 15.75 6.0875 15.4208 6.2625 15.1125C6.4375 14.8042 6.675 14.5583 6.975 14.375C7.74167 13.925 8.54583 13.5833 9.3875 13.35C10.2292 13.1167 11.1 13 12 13C12.9 13 13.7708 13.1167 14.6125 13.35C15.4542 13.5833 16.2583 13.925 17.025 14.375C17.325 14.5583 17.5625 14.8042 17.7375 15.1125C17.9125 15.4208 18 15.75 18 16.1V17C18 17.2833 17.9042 17.5208 17.7125 17.7125C17.5208 17.9042 17.2833 18 17 18H7C6.71667 18 6.47917 17.9042 6.2875 17.7125C6.09583 17.5208 6 17.2833 6 17ZM12 15C11.3167 15 10.65 15.0833 10 15.25C9.35 15.4167 8.73333 15.6667 8.15 16H15.85C15.2667 15.6667 14.65 15.4167 14 15.25C13.35 15.0833 12.6833 15 12 15ZM4 22C3.45 22 2.97917 21.8042 2.5875 21.4125C2.19583 21.0208 2 20.55 2 20V17C2 16.7167 2.09583 16.4792 2.2875 16.2875C2.47917 16.0958 2.71667 16 3 16C3.28333 16 3.52083 16.0958 3.7125 16.2875C3.90417 16.4792 4 16.7167 4 17V20H7C7.28333 20 7.52083 20.0958 7.7125 20.2875C7.90417 20.4792 8 20.7167 8 21C8 21.2833 7.90417 21.5208 7.7125 21.7125C7.52083 21.9042 7.28333 22 7 22H4ZM2 7V4C2 3.45 2.19583 2.97917 2.5875 2.5875C2.97917 2.19583 3.45 2 4 2H7C7.28333 2 7.52083 2.09583 7.7125 2.2875C7.90417 2.47917 8 2.71667 8 3C8 3.28333 7.90417 3.52083 7.7125 3.7125C7.52083 3.90417 7.28333 4 7 4H4V7C4 7.28333 3.90417 7.52083 3.7125 7.7125C3.52083 7.90417 3.28333 8 3 8C2.71667 8 2.47917 7.90417 2.2875 7.7125C2.09583 7.52083 2 7.28333 2 7ZM20 22H17C16.7167 22 16.4792 21.9042 16.2875 21.7125C16.0958 21.5208 16 21.2833 16 21C16 20.7167 16.0958 20.4792 16.2875 20.2875C16.4792 20.0958 16.7167 20 17 20H20V17C20 16.7167 20.0958 16.4792 20.2875 16.2875C20.4792 16.0958 20.7167 16 21 16C21.2833 16 21.5208 16.0958 21.7125 16.2875C21.9042 16.4792 22 16.7167 22 17V20C22 20.55 21.8042 21.0208 21.4125 21.4125C21.0208 21.8042 20.55 22 20 22ZM20 7V4H17C16.7167 4 16.4792 3.90417 16.2875 3.7125C16.0958 3.52083 16 3.28333 16 3C16 2.71667 16.0958 2.47917 16.2875 2.2875C16.4792 2.09583 16.7167 2 17 2H20C20.55 2 21.0208 2.19583 21.4125 2.5875C21.8042 2.97917 22 3.45 22 4V7C22 7.28333 21.9042 7.52083 21.7125 7.7125C21.5208 7.90417 21.2833 8 21 8C20.7167 8 20.4792 7.90417 20.2875 7.7125C20.0958 7.52083 20 7.28333 20 7Z" fill="white"/>
</g>
</svg>
