<svg width="24" height="24" viewBox="0 0 24 24" fill="none" xmlns="http://www.w3.org/2000/svg">
<mask id="mask0_56_458" style="mask-type:alpha" maskUnits="userSpaceOnUse" x="0" y="0" width="24" height="24">
<rect width="24" height="24" fill="#D9D9D9"/>
</mask>
<g mask="url(#mask0_56_458)">
<path d="M6 21C5.71667 21 5.47917 20.9041 5.2875 20.7125C5.09583 20.5208 5 20.2833 5 20V4.99998C5 4.71664 5.09583 4.47914 5.2875 4.28748C5.47917 4.09581 5.71667 3.99998 6 3.99998H10.125C10.4083 3.99998 10.6458 4.09581 10.8375 4.28748C11.0292 4.47914 11.125 4.71664 11.125 4.99998C11.125 5.28331 11.0292 5.52081 10.8375 5.71248C10.6458 5.90414 10.4083 5.99998 10.125 5.99998H7V12H13.425C13.6583 12 13.8667 12.075 14.05 12.225C14.2333 12.375 14.35 12.5666 14.4 12.8L14.65 14H18V13.55C18 13.2666 18.0958 13.0291 18.2875 12.8375C18.4792 12.6458 18.7167 12.55 19 12.55C19.2833 12.55 19.5208 12.6458 19.7125 12.8375C19.9042 13.0291 20 13.2666 20 13.55V15C20 15.2833 19.9042 15.5208 19.7125 15.7125C19.5208 15.9041 19.2833 16 19 16H13.825C13.5917 16 13.3833 15.925 13.2 15.775C13.0167 15.625 12.9 15.4333 12.85 15.2L12.6 14H7V20C7 20.2833 6.90417 20.5208 6.7125 20.7125C6.52083 20.9041 6.28333 21 6 21ZM18 0.849976C19.3833 0.849976 20.5625 1.33748 21.5375 2.31248C22.5125 3.28748 23 4.46664 23 5.84998C23 7.23331 22.5125 8.41248 21.5375 9.38748C20.5625 10.3625 19.3833 10.85 18 10.85C16.6167 10.85 15.4375 10.3625 14.4625 9.38748C13.4875 8.41248 13 7.23331 13 5.84998C13 4.46664 13.4875 3.28748 14.4625 2.31248C15.4375 1.33748 16.6167 0.849976 18 0.849976ZM17.275 5.97498L16.825 5.52498C16.675 5.37498 16.5 5.30414 16.3 5.31248C16.1 5.32081 15.925 5.39998 15.775 5.54998C15.625 5.69998 15.55 5.87498 15.55 6.07498C15.55 6.27498 15.625 6.44998 15.775 6.59998L16.575 7.39998C16.775 7.59998 17.0083 7.69998 17.275 7.69998C17.5417 7.69998 17.775 7.59998 17.975 7.39998L20.225 5.17498C20.375 5.02498 20.45 4.84581 20.45 4.63748C20.45 4.42914 20.375 4.24998 20.225 4.09998C20.075 3.94998 19.9 3.87914 19.7 3.88748C19.5 3.89581 19.325 3.96664 19.175 4.09998L17.275 5.97498Z" fill="white"/>
</g>
</svg>
