<svg width="24" height="24" viewBox="0 0 24 24" fill="none" xmlns="http://www.w3.org/2000/svg">
<path d="M19.2 3H4.8C3.81 3 3 3.81 3 4.8V19.2C3 20.19 3.81 21 4.8 21H19.2C20.19 21 21 20.19 21 19.2V4.8C21 3.81 20.19 3 19.2 3ZM8.4 19.2H5.7C5.205 19.2 4.8 18.795 4.8 18.3V15.6H8.4V19.2ZM8.4 13.8H4.8V10.2H8.4V13.8ZM8.4 8.4H4.8V5.7C4.8 5.205 5.205 4.8 5.7 4.8H8.4V8.4ZM13.8 19.2H10.2V15.6H13.8V19.2ZM13.8 13.8H10.2V10.2H13.8V13.8ZM13.8 8.4H10.2V4.8H13.8V8.4ZM18.3 19.2H15.6V15.6H19.2V18.3C19.2 18.795 18.795 19.2 18.3 19.2ZM19.2 13.8H15.6V10.2H19.2V13.8ZM19.2 8.4H15.6V4.8H18.3C18.795 4.8 19.2 5.205 19.2 5.7V8.4Z" fill="white"/>
</svg>
