<svg width="24" height="24" viewBox="0 0 24 24" fill="none" xmlns="http://www.w3.org/2000/svg">
<mask id="mask0_56_415" style="mask-type:alpha" maskUnits="userSpaceOnUse" x="0" y="0" width="24" height="24">
<rect width="24" height="24" fill="#D9D9D9"/>
</mask>
<g mask="url(#mask0_56_415)">
<path d="M8 20V19H4C3.45 19 2.97917 18.8042 2.5875 18.4125C2.19583 18.0208 2 17.55 2 17V5C2 4.45 2.19583 3.97917 2.5875 3.5875C2.97917 3.19583 3.45 3 4 3H11C11.2833 3 11.5208 3.09583 11.7125 3.2875C11.9042 3.47917 12 3.71667 12 4C12 4.28333 11.9042 4.52083 11.7125 4.7125C11.5208 4.90417 11.2833 5 11 5H4V17H20V15C20 14.7167 20.0958 14.4792 20.2875 14.2875C20.4792 14.0958 20.7167 14 21 14C21.2833 14 21.5208 14.0958 21.7125 14.2875C21.9042 14.4792 22 14.7167 22 15V17C22 17.55 21.8042 18.0208 21.4125 18.4125C21.0208 18.8042 20.55 19 20 19H16V20C16 20.2833 15.9042 20.5208 15.7125 20.7125C15.5208 20.9042 15.2833 21 15 21H9C8.71667 21 8.47917 20.9042 8.2875 20.7125C8.09583 20.5208 8 20.2833 8 20ZM16 10.175V4C16 3.71667 16.0958 3.47917 16.2875 3.2875C16.4792 3.09583 16.7167 3 17 3C17.2833 3 17.5208 3.09583 17.7125 3.2875C17.9042 3.47917 18 3.71667 18 4V10.175L19.9 8.3C20.0833 8.11667 20.3125 8.02083 20.5875 8.0125C20.8625 8.00417 21.1 8.1 21.3 8.3C21.4833 8.48333 21.575 8.71667 21.575 9C21.575 9.28333 21.4833 9.51667 21.3 9.7L17.7 13.3C17.5 13.5 17.2667 13.6 17 13.6C16.7333 13.6 16.5 13.5 16.3 13.3L12.7 9.7C12.5167 9.51667 12.4208 9.2875 12.4125 9.0125C12.4042 8.7375 12.5 8.5 12.7 8.3C12.8833 8.11667 13.1167 8.025 13.4 8.025C13.6833 8.025 13.9167 8.11667 14.1 8.3L16 10.175Z" fill="white"/>
</g>
</svg>
