<svg width="24" height="24" viewBox="0 0 24 24" fill="none" xmlns="http://www.w3.org/2000/svg">
<mask id="mask0_56_139" style="mask-type:alpha" maskUnits="userSpaceOnUse" x="0" y="0" width="24" height="24">
<rect width="24" height="24" fill="#D9D9D9"/>
</mask>
<g mask="url(#mask0_56_139)">
<path d="M6 13C5.71667 13 5.47917 12.9042 5.2875 12.7125C5.09583 12.5208 5 12.2833 5 12C5 11.7167 5.09583 11.4792 5.2875 11.2875C5.47917 11.0958 5.71667 11 6 11H9C9.28333 11 9.52083 11.0958 9.7125 11.2875C9.90417 11.4792 10 11.7167 10 12C10 12.2833 9.90417 12.5208 9.7125 12.7125C9.52083 12.9042 9.28333 13 9 13H6ZM6 10C5.71667 10 5.47917 9.90417 5.2875 9.7125C5.09583 9.52083 5 9.28333 5 9C5 8.71667 5.09583 8.47917 5.2875 8.2875C5.47917 8.09583 5.71667 8 6 8H9C9.28333 8 9.52083 8.09583 9.7125 8.2875C9.90417 8.47917 10 8.71667 10 9C10 9.28333 9.90417 9.52083 9.7125 9.7125C9.52083 9.90417 9.28333 10 9 10H6ZM15 13C15.6 13 16.1417 13.0542 16.625 13.1625C17.1083 13.2708 17.5333 13.4417 17.9 13.675C18.25 13.8917 18.5167 14.1375 18.7 14.4125C18.8833 14.6875 18.975 14.9833 18.975 15.3C18.975 15.5 18.9 15.6667 18.75 15.8C18.6 15.9333 18.4167 16 18.2 16H11.8C11.5833 16 11.4 15.9292 11.25 15.7875C11.1 15.6458 11.025 15.4667 11.025 15.25C11.025 14.9667 11.1167 14.6917 11.3 14.425C11.4833 14.1583 11.75 13.9083 12.1 13.675C12.4667 13.4417 12.8917 13.2708 13.375 13.1625C13.8583 13.0542 14.4 13 15 13ZM15 12C14.45 12 13.9792 11.8042 13.5875 11.4125C13.1958 11.0208 13 10.55 13 10C13 9.45 13.1958 8.97917 13.5875 8.5875C13.9792 8.19583 14.45 8 15 8C15.55 8 16.0208 8.19583 16.4125 8.5875C16.8042 8.97917 17 9.45 17 10C17 10.55 16.8042 11.0208 16.4125 11.4125C16.0208 11.8042 15.55 12 15 12ZM20 20C20.55 20 21.0208 19.8042 21.4125 19.4125C21.8042 19.0208 22 18.55 22 18V6C22 5.45 21.8042 4.97917 21.4125 4.5875C21.0208 4.19583 20.55 4 20 4H4C3.45 4 2.97917 4.19583 2.5875 4.5875C2.19583 4.97917 2 5.45 2 6V18C2 18.55 2.19583 19.0208 2.5875 19.4125C2.97917 19.8042 3.45 20 4 20H20Z" fill="white"/>
</g>
</svg>
