<svg width="24" height="24" viewBox="0 0 24 24" fill="none" xmlns="http://www.w3.org/2000/svg">
<mask id="mask0_56_225" style="mask-type:alpha" maskUnits="userSpaceOnUse" x="0" y="0" width="24" height="24">
<rect width="24" height="24" fill="#D9D9D9"/>
</mask>
<g mask="url(#mask0_56_225)">
<path d="M12 21C9.76667 21 7.875 20.2324 6.325 18.6971C4.775 17.1618 4 15.288 4 13.0759C4 11.2104 4.55833 9.41923 5.675 7.70234C6.79167 5.98545 8.325 4.48317 10.275 3.1955C10.6417 2.94787 11.0208 2.93549 11.4125 3.15835C11.8042 3.38122 12 3.71552 12 4.16125V5.44892C12 6.01021 12.1958 6.4807 12.5875 6.8604C12.9792 7.2401 13.4583 7.42995 14.025 7.42995C14.3083 7.42995 14.5792 7.36804 14.8375 7.24423C15.0958 7.12041 15.325 6.94294 15.525 6.71182C15.6583 6.54674 15.8292 6.44356 16.0375 6.40229C16.2458 6.36102 16.4417 6.40642 16.625 6.53848C17.675 7.28137 18.5 8.23061 19.1 9.38621C19.7 10.5418 20 11.7717 20 13.0759C20 15.288 19.225 17.1618 17.675 18.6971C16.125 20.2324 14.2333 21 12 21ZM6 13.0759C6 13.9343 6.175 14.7474 6.525 15.515C6.875 16.2827 7.375 16.9554 8.025 17.5332C8.00833 17.4507 8 17.3764 8 17.3103V17.0875C8 16.5592 8.1 16.0639 8.3 15.6017C8.5 15.1395 8.79167 14.7185 9.175 14.3388L12 11.5901L14.825 14.3388C15.2083 14.7185 15.5 15.1395 15.7 15.6017C15.9 16.0639 16 16.5592 16 17.0875V17.3103C16 17.3764 15.9917 17.4507 15.975 17.5332C16.625 16.9554 17.125 16.2827 17.475 15.515C17.825 14.7474 18 13.9343 18 13.0759C18 12.2505 17.8458 11.4704 17.5375 10.7358C17.2292 10.0012 16.7833 9.34494 16.2 8.76714C15.8667 8.98175 15.5167 9.14271 15.15 9.25002C14.7833 9.35732 14.4083 9.41098 14.025 9.41098C12.9917 9.41098 12.0958 9.07255 11.3375 8.3957C10.5792 7.71885 10.1417 6.88516 10.025 5.89465C8.725 6.98422 7.72917 8.14394 7.0375 9.37383C6.34583 10.6037 6 11.8377 6 13.0759ZM12 14.3636L10.575 15.7503C10.3917 15.9319 10.25 16.1382 10.15 16.3693C10.05 16.6005 10 16.8398 10 17.0875C10 17.6157 10.1958 18.0697 10.5875 18.4494C10.9792 18.8291 11.45 19.019 12 19.019C12.55 19.019 13.0208 18.8291 13.4125 18.4494C13.8042 18.0697 14 17.6157 14 17.0875C14 16.8233 13.95 16.5798 13.85 16.357C13.75 16.1341 13.6083 15.9319 13.425 15.7503L12 14.3636Z" fill="white"/>
</g>
</svg>
