<svg width="24" height="24" viewBox="0 0 24 24" fill="none" xmlns="http://www.w3.org/2000/svg">
<mask id="mask0_56_112" style="mask-type:alpha" maskUnits="userSpaceOnUse" x="0" y="0" width="24" height="24">
<rect x="0.5" y="0.5" width="23" height="23" fill="#D9D9D9" stroke="#9CAFB2"/>
</mask>
<g mask="url(#mask0_56_112)">
<path d="M12.0002 4.9875C10.0635 4.9875 8.41021 5.6722 7.0412 7.04121C5.67219 8.41023 4.98749 10.0635 4.98749 12.0002C4.98753 13.9368 5.67223 15.5902 7.0412 16.9592C8.41017 18.3281 10.0636 19.0129 12.0002 19.0129C13.9367 19.0128 15.5902 18.3281 16.9592 16.9592C18.3281 15.5902 19.0128 13.9368 19.0129 12.0002C19.0129 10.0636 18.328 8.41019 16.9592 7.04121C15.5902 5.67225 13.9367 4.98755 12.0002 4.9875ZM12.0002 8.01289C13.0968 8.01294 14.0356 8.40283 14.8166 9.18379C15.5975 9.96476 15.9875 10.9036 15.9875 12.0002C15.9874 13.0968 15.5976 14.0356 14.8166 14.8166C14.0356 15.5976 13.0968 15.9875 12.0002 15.9875C10.9036 15.9875 9.96475 15.5975 9.18378 14.8166C8.40281 14.0356 8.01292 13.0968 8.01288 12.0002C8.01288 10.9035 8.40277 9.9648 9.18378 9.18379C9.96478 8.40278 10.9035 8.01289 12.0002 8.01289ZM12.0002 9.9875C11.4468 9.9875 10.9723 10.1843 10.5783 10.5783C10.1843 10.9723 9.98749 11.4469 9.98749 12.0002C9.98753 12.5533 10.1846 13.0272 10.5783 13.4211C10.9723 13.8151 11.4468 14.0129 12.0002 14.0129C12.5534 14.0128 13.0271 13.815 13.4211 13.4211C13.815 13.0272 14.0128 12.5535 14.0129 12.0002C14.0129 11.4469 13.8151 10.9723 13.4211 10.5783C13.0272 10.1846 12.5533 9.98755 12.0002 9.9875ZM11.0129 20.9387L11.0012 20.9377C8.92084 20.7047 7.13626 19.8432 5.64667 18.3537C4.15699 16.864 3.2957 15.0787 3.06268 12.9982L3.06073 12.9875H1.06268V11.0129H3.06073L3.06268 11.0012C3.29574 8.92078 4.15705 7.1363 5.64667 5.64668C7.13628 4.15707 8.92077 3.29575 11.0012 3.0627L11.0129 3.06075V1.0627H12.9875V3.06075L12.9982 3.0627C15.0787 3.29571 16.864 4.15701 18.3537 5.64668C19.8432 7.13627 20.7046 8.92086 20.9377 11.0012L20.9387 11.0129H22.9377V12.9875H20.9387L20.9377 12.9982C20.7047 15.0787 19.8434 16.864 18.3537 18.3537C16.864 19.8434 15.0787 20.7047 12.9982 20.9377L12.9875 20.9387V22.9377H11.0129V20.9387Z" fill="white" stroke="white" stroke-width="0.025"/>
</g>
</svg>
