<svg width="24" height="24" viewBox="0 0 24 24" fill="none" xmlns="http://www.w3.org/2000/svg">
<mask id="mask0_56_375" style="mask-type:alpha" maskUnits="userSpaceOnUse" x="0" y="0" width="24" height="24">
<rect width="24" height="24" fill="#D9D9D9"/>
</mask>
<g mask="url(#mask0_56_375)">
<path d="M17.9237 10.0428C17.15 9.89885 15.913 9.97982 14.2126 10.2857C12.5123 10.5916 10.6006 11.7791 8.47742 13.8483C9.05319 11.7431 10.2137 10.0518 11.959 8.7743C13.7043 7.49681 15.6746 6.85806 17.8697 6.85806L16.3583 5.34667C16.1604 5.14875 16.0614 4.89685 16.0614 4.59097C16.0614 4.28509 16.1604 4.03319 16.3583 3.83527C16.5562 3.63735 16.8081 3.53839 17.114 3.53839C17.4199 3.53839 17.6718 3.63735 17.8697 3.83527L21.7561 7.72172C21.972 7.93763 22.08 8.18953 22.08 8.47742C22.08 8.7653 21.972 9.0172 21.7561 9.23312L17.8697 13.1196C17.6718 13.3175 17.4199 13.4165 17.114 13.4165C16.8081 13.4165 16.5562 13.3175 16.3583 13.1196C16.1604 12.9216 16.0614 12.6697 16.0614 12.3639C16.0614 12.058 16.1604 11.8061 16.3583 11.6082L17.9237 10.0428ZM2 10.8525C2 8.40545 2.83667 6.31828 4.51 4.59097C6.18333 2.86366 8.22552 2 10.6366 2C11.1044 2 11.5632 2.03599 12.013 2.10796C12.4628 2.17993 12.9037 2.28789 13.3355 2.43183C13.6234 2.52179 13.8348 2.70172 13.9697 2.97161C14.1047 3.24151 14.1272 3.52039 14.0372 3.80828C13.9472 4.09616 13.7673 4.30308 13.4974 4.42903C13.2275 4.55498 12.9486 4.57297 12.6608 4.48301C12.3369 4.37505 12.004 4.29409 11.6621 4.24011C11.3203 4.18613 10.9784 4.15914 10.6366 4.15914C8.81928 4.15914 7.28539 4.81138 6.03489 6.11586C4.78439 7.42034 4.15914 8.99921 4.15914 10.8525C4.15914 12.13 4.68993 13.5874 5.75151 15.2247C6.81308 16.8621 8.44143 18.6884 10.6366 20.7035C11.6442 19.7859 12.5348 18.9088 13.3085 18.0721C14.0822 17.2354 14.7299 16.4213 15.2517 15.6296C15.4137 15.3777 15.6386 15.2247 15.9265 15.1708C16.2143 15.1168 16.4842 15.1708 16.7361 15.3327C16.988 15.4946 17.141 15.724 17.1949 16.0209C17.2489 16.3178 17.1949 16.5922 17.033 16.8441C16.4572 17.7077 15.76 18.5849 14.9413 19.4755C14.1227 20.3662 13.1915 21.2883 12.148 22.2419C11.932 22.4399 11.6936 22.5883 11.4327 22.6873C11.1718 22.7862 10.9065 22.8357 10.6366 22.8357C10.3667 22.8357 10.0968 22.7862 9.82688 22.6873C9.55699 22.5883 9.31409 22.4399 9.09817 22.2419C6.70513 20.0648 4.92384 18.0316 3.7543 16.1424C2.58477 14.2531 2 12.4898 2 10.8525Z" fill="white"/>
</g>
</svg>
