<svg width="24" height="24" viewBox="0 0 24 24" fill="none" xmlns="http://www.w3.org/2000/svg">
<mask id="mask0_56_350" style="mask-type:alpha" maskUnits="userSpaceOnUse" x="0" y="0" width="24" height="24">
<rect width="24" height="24" fill="#D9D9D9"/>
</mask>
<g mask="url(#mask0_56_350)">
<path d="M19.7955 21.33L2.79992 4.35632C2.59997 4.15634 2.5 3.91885 2.5 3.64387C2.5 3.3689 2.59997 3.13141 2.79992 2.93143C2.99987 2.73144 3.23731 2.63145 3.51223 2.63145C3.78716 2.63145 4.0246 2.73144 4.22455 2.93143L21.2201 19.9301C21.42 20.1301 21.52 20.3634 21.52 20.6301C21.52 20.8967 21.42 21.13 21.2201 21.33C21.0201 21.53 20.7827 21.63 20.5078 21.63C20.2328 21.63 19.9954 21.53 19.7955 21.33ZM14.7468 8.73099C13.7137 8.73099 12.8181 8.38934 12.06 7.70606C11.3019 7.02278 10.8645 6.18118 10.7478 5.18126C10.5312 5.36458 10.2771 5.4479 9.98553 5.43124C9.69394 5.41457 9.45651 5.30625 9.27322 5.10626C9.08993 4.90628 8.99829 4.6688 8.99829 4.39382C8.99829 4.11884 9.1066 3.88969 9.32321 3.70637C9.62313 3.43972 9.89806 3.21891 10.148 3.04392C10.3979 2.86893 10.6978 2.66478 11.0478 2.43147C11.4143 2.19815 11.7851 2.18982 12.16 2.40647C12.5349 2.62312 12.7223 2.94809 12.7223 3.38139V4.73129C12.7223 5.29791 12.9181 5.77288 13.3097 6.15618C13.7012 6.53949 14.1803 6.73114 14.7468 6.73114C15.0467 6.73114 15.3258 6.66448 15.5841 6.53115C15.8423 6.39783 16.0714 6.21451 16.2714 5.9812C16.4047 5.81454 16.5671 5.71455 16.7588 5.68122C16.9504 5.64789 17.1378 5.68955 17.3211 5.80621C18.3708 6.55615 19.1998 7.51441 19.808 8.68099C20.4161 9.84757 20.7202 11.0975 20.7202 12.4307C20.7202 12.6807 20.7077 12.9223 20.6827 13.1556C20.6577 13.389 20.6286 13.6223 20.5952 13.8556C20.5453 14.1222 20.3995 14.3264 20.1579 14.468C19.9163 14.6097 19.6622 14.6389 19.3956 14.5555C19.2623 14.5222 19.1456 14.4639 19.0457 14.3806C18.9457 14.2972 18.8624 14.1972 18.7957 14.0806C18.7291 13.9639 18.6832 13.8389 18.6583 13.7056C18.6333 13.5723 18.6291 13.439 18.6458 13.3056C18.6791 13.1556 18.6999 13.0098 18.7082 12.8682C18.7166 12.7265 18.7207 12.5807 18.7207 12.4307C18.7207 11.5974 18.5666 10.81 18.2584 10.0684C17.9501 9.32677 17.5044 8.66432 16.9212 8.08104C16.588 8.29769 16.2381 8.46017 15.8715 8.5685C15.5049 8.67682 15.13 8.73099 14.7468 8.73099ZM12.7223 20.4301C10.4896 20.4301 8.5984 19.6551 7.0488 18.1053C5.49921 16.5554 4.72442 14.6639 4.72442 12.4307C4.72442 11.2808 4.93686 10.16 5.36175 9.06846C5.78664 7.97688 6.39898 6.93112 7.19877 5.9312L8.62339 7.35609C7.99022 8.18936 7.51535 9.03096 7.19877 9.8809C6.88218 10.7308 6.72389 11.5808 6.72389 12.4307C6.72389 13.2973 6.89884 14.1181 7.24875 14.893C7.59866 15.668 8.09853 16.3471 8.74836 16.9304C8.7317 16.847 8.72336 16.772 8.72336 16.7054V16.4804C8.72336 15.9471 8.82334 15.4471 9.02329 14.9805C9.22323 14.5139 9.51482 14.0889 9.89806 13.7056L12.4724 11.2058L13.897 12.6307L11.2977 15.1305C11.1144 15.3138 10.9728 15.5221 10.8728 15.7554C10.7728 15.9888 10.7228 16.2304 10.7228 16.4804C10.7228 17.0137 10.9186 17.472 11.3102 17.8553C11.7017 18.2386 12.1725 18.4302 12.7223 18.4302C13.2722 18.4302 13.7429 18.2386 14.1344 17.8553C14.526 17.472 14.7218 17.0137 14.7218 16.4804C14.7218 16.2137 14.6676 15.9721 14.5593 15.7554C14.451 15.5388 14.3052 15.3388 14.1219 15.1555L15.2716 14.0056L18.8457 17.5803C18.0959 18.4636 17.2003 19.1594 16.1589 19.6677C15.1175 20.1759 13.972 20.4301 12.7223 20.4301Z" fill="white"/>
</g>
</svg>
