<svg width="24" height="24" viewBox="0 0 24 24" fill="none" xmlns="http://www.w3.org/2000/svg">
<mask id="mask0_56_246" style="mask-type:alpha" maskUnits="userSpaceOnUse" x="0" y="0" width="24" height="24">
<rect width="24" height="24" fill="#D9D9D9"/>
</mask>
<g mask="url(#mask0_56_246)">
<path d="M3.00085 15.7291H21.0085C21.292 15.7291 21.5296 15.825 21.7213 16.0168C21.9131 16.2085 22.009 16.4461 22.009 16.7296C22.009 17.013 21.9131 17.2506 21.7213 17.4424C21.5296 17.6341 21.292 17.73 21.0085 17.73H3.00085C2.7174 17.73 2.4798 17.6341 2.28805 17.4424C2.0963 17.2506 2.00043 17.013 2.00043 16.7296C2.00043 16.4461 2.0963 16.2085 2.28805 16.0168C2.4798 15.825 2.7174 15.7291 3.00085 15.7291ZM4.00128 10.1768L3.52608 11.0271C3.42603 11.2106 3.27597 11.3273 3.07588 11.3773C2.8758 11.4273 2.68405 11.4023 2.50064 11.3023C2.31723 11.2022 2.20051 11.0522 2.15049 10.8521C2.10047 10.652 2.12548 10.4602 2.22552 10.2768L2.70072 9.42646H1.75032C1.53356 9.42646 1.35432 9.3556 1.21259 9.21387C1.07086 9.07214 1 8.8929 1 8.67614C1 8.45938 1.07086 8.28014 1.21259 8.13841C1.35432 7.99668 1.53356 7.92582 1.75032 7.92582H2.70072L2.22552 7.12548C2.12548 6.94207 2.10047 6.75032 2.15049 6.55023C2.20051 6.35015 2.31723 6.20009 2.50064 6.10004C2.68405 6 2.8758 5.97499 3.07588 6.02501C3.27597 6.07503 3.42603 6.19175 3.52608 6.37516L4.00128 7.1755L4.47648 6.37516C4.57652 6.19175 4.72659 6.07503 4.92667 6.02501C5.12676 5.97499 5.31851 6 5.50192 6.10004C5.68533 6.20009 5.80205 6.35015 5.85207 6.55023C5.90209 6.75032 5.87708 6.94207 5.77704 7.12548L5.30183 7.92582H6.25224C6.469 7.92582 6.64824 7.99668 6.78997 8.13841C6.93169 8.28014 7.00256 8.45938 7.00256 8.67614C7.00256 8.8929 6.93169 9.07214 6.78997 9.21387C6.64824 9.3556 6.469 9.42646 6.25224 9.42646H5.30183L5.77704 10.2768C5.87708 10.4602 5.90209 10.652 5.85207 10.8521C5.80205 11.0522 5.68533 11.2022 5.50192 11.3023C5.31851 11.4023 5.12676 11.4273 4.92667 11.3773C4.72659 11.3273 4.57652 11.2106 4.47648 11.0271L4.00128 10.1768ZM12.0047 10.1768L11.5295 11.0271C11.4294 11.2106 11.2794 11.3273 11.0793 11.3773C10.8792 11.4273 10.6875 11.4023 10.504 11.3023C10.3206 11.2022 10.2039 11.0522 10.1539 10.8521C10.1039 10.652 10.1289 10.4602 10.2289 10.2768L10.7041 9.42646H9.75373C9.53697 9.42646 9.35773 9.3556 9.216 9.21387C9.07427 9.07214 9.00341 8.8929 9.00341 8.67614C9.00341 8.45938 9.07427 8.28014 9.216 8.13841C9.35773 7.99668 9.53697 7.92582 9.75373 7.92582H10.7041L10.2289 7.12548C10.1289 6.94207 10.1039 6.75032 10.1539 6.55023C10.2039 6.35015 10.3206 6.20009 10.504 6.10004C10.6875 6 10.8792 5.97499 11.0793 6.02501C11.2794 6.07503 11.4294 6.19175 11.5295 6.37516L12.0047 7.1755L12.4799 6.37516C12.5799 6.19175 12.73 6.07503 12.9301 6.02501C13.1302 5.97499 13.3219 6 13.5053 6.10004C13.6887 6.20009 13.8055 6.35015 13.8555 6.55023C13.9055 6.75032 13.8805 6.94207 13.7804 7.12548L13.3052 7.92582H14.2556C14.4724 7.92582 14.6517 7.99668 14.7934 8.13841C14.9351 8.28014 15.006 8.45938 15.006 8.67614C15.006 8.8929 14.9351 9.07214 14.7934 9.21387C14.6517 9.3556 14.4724 9.42646 14.2556 9.42646H13.3052L13.7804 10.2768C13.8805 10.4602 13.9055 10.652 13.8555 10.8521C13.8055 11.0522 13.6887 11.2022 13.5053 11.3023C13.3219 11.4023 13.1302 11.4273 12.9301 11.3773C12.73 11.3273 12.5799 11.2106 12.4799 11.0271L12.0047 10.1768ZM20.0081 10.1768L19.5329 11.0271C19.4329 11.2106 19.2828 11.3273 19.0827 11.3773C18.8826 11.4273 18.6909 11.4023 18.5075 11.3023C18.324 11.2022 18.2073 11.0522 18.1573 10.8521C18.1073 10.652 18.1323 10.4602 18.2323 10.2768L18.7075 9.42646H17.7571C17.5404 9.42646 17.3611 9.3556 17.2194 9.21387C17.0777 9.07214 17.0068 8.8929 17.0068 8.67614C17.0068 8.45938 17.0777 8.28014 17.2194 8.13841C17.3611 7.99668 17.5404 7.92582 17.7571 7.92582H18.7075L18.2323 7.12548C18.1323 6.94207 18.1073 6.75032 18.1573 6.55023C18.2073 6.35015 18.324 6.20009 18.5075 6.10004C18.6909 6 18.8826 5.97499 19.0827 6.02501C19.2828 6.07503 19.4329 6.19175 19.5329 6.37516L20.0081 7.1755L20.4833 6.37516C20.5833 6.19175 20.7334 6.07503 20.9335 6.02501C21.1336 5.97499 21.3253 6 21.5087 6.10004C21.6922 6.20009 21.8089 6.35015 21.8589 6.55023C21.9089 6.75032 21.8839 6.94207 21.7839 7.12548L21.3087 7.92582H22.2591C22.4758 7.92582 22.6551 7.99668 22.7968 8.13841C22.9385 8.28014 23.0094 8.45938 23.0094 8.67614C23.0094 8.8929 22.9385 9.07214 22.7968 9.21387C22.6551 9.3556 22.4758 9.42646 22.2591 9.42646H21.3087L21.7839 10.2768C21.8839 10.4602 21.9089 10.652 21.8589 10.8521C21.8089 11.0522 21.6922 11.2022 21.5087 11.3023C21.3253 11.4023 21.1336 11.4273 20.9335 11.3773C20.7334 11.3273 20.5833 11.2106 20.4833 11.0271L20.0081 10.1768Z" fill="white"/>
</g>
</svg>
