<svg width="24" height="24" viewBox="0 0 24 24" fill="none" xmlns="http://www.w3.org/2000/svg">
<mask id="mask0_56_172" style="mask-type:alpha" maskUnits="userSpaceOnUse" x="0" y="0" width="24" height="24">
<rect width="24" height="24" fill="#D9D9D9"/>
</mask>
<g mask="url(#mask0_56_172)">
<path d="M12 6C11.7167 6 11.4792 5.90417 11.2875 5.7125C11.0958 5.52083 11 5.28333 11 5V3C11 2.71667 11.0958 2.47917 11.2875 2.2875C11.4792 2.09583 11.7167 2 12 2C12.2833 2 12.5208 2.09583 12.7125 2.2875C12.9042 2.47917 13 2.71667 13 3V5C13 5.28333 12.9042 5.52083 12.7125 5.7125C12.5208 5.90417 12.2833 6 12 6ZM16.95 8.05C16.7667 7.86667 16.675 7.63333 16.675 7.35C16.675 7.06667 16.7667 6.83333 16.95 6.65L18.35 5.225C18.55 5.025 18.7875 4.925 19.0625 4.925C19.3375 4.925 19.575 5.025 19.775 5.225C19.9583 5.40833 20.05 5.64167 20.05 5.925C20.05 6.20833 19.9583 6.44167 19.775 6.625L18.35 8.05C18.1667 8.23333 17.9333 8.325 17.65 8.325C17.3667 8.325 17.1333 8.23333 16.95 8.05ZM20 14C19.7167 14 19.4792 13.9042 19.2875 13.7125C19.0958 13.5208 19 13.2833 19 13C19 12.7167 19.0958 12.4792 19.2875 12.2875C19.4792 12.0958 19.7167 12 20 12H22C22.2833 12 22.5208 12.0958 22.7125 12.2875C22.9042 12.4792 23 12.7167 23 13C23 13.2833 22.9042 13.5208 22.7125 13.7125C22.5208 13.9042 22.2833 14 22 14H20ZM18.35 20.775L16.95 19.35C16.7667 19.1667 16.675 18.9333 16.675 18.65C16.675 18.3667 16.7667 18.1333 16.95 17.95C17.1333 17.7667 17.3667 17.675 17.65 17.675C17.9333 17.675 18.1667 17.7667 18.35 17.95L19.775 19.35C19.975 19.55 20.075 19.7875 20.075 20.0625C20.075 20.3375 19.975 20.575 19.775 20.775C19.575 20.975 19.3375 21.075 19.0625 21.075C18.7875 21.075 18.55 20.975 18.35 20.775ZM5.65 8.05L4.225 6.625C4.04167 6.44167 3.95 6.20833 3.95 5.925C3.95 5.64167 4.04167 5.40833 4.225 5.225C4.425 5.025 4.6625 4.925 4.9375 4.925C5.2125 4.925 5.45 5.025 5.65 5.225L7.05 6.65C7.23333 6.83333 7.325 7.06667 7.325 7.35C7.325 7.63333 7.23333 7.86667 7.05 8.05C6.86667 8.23333 6.63333 8.325 6.35 8.325C6.06667 8.325 5.83333 8.23333 5.65 8.05ZM6 20H10.5C10.9167 20 11.2708 19.8542 11.5625 19.5625C11.8542 19.2708 12 18.9167 12 18.5C12 18.0833 11.8583 17.7292 11.575 17.4375C11.2917 17.1458 10.9417 17 10.525 17H9.25L8.75 15.8C8.51667 15.25 8.15 14.8125 7.65 14.4875C7.15 14.1625 6.6 14 6 14C5.16667 14 4.45833 14.2917 3.875 14.875C3.29167 15.4583 3 16.1667 3 17C3 17.8333 3.29167 18.5417 3.875 19.125C4.45833 19.7083 5.16667 20 6 20ZM6 22C4.61667 22 3.4375 21.5125 2.4625 20.5375C1.4875 19.5625 1 18.3833 1 17C1 15.6167 1.4875 14.4375 2.4625 13.4625C3.4375 12.4875 4.61667 12 6 12C7 12 7.9125 12.2708 8.7375 12.8125C9.5625 13.3542 10.175 14.0833 10.575 15C11.5417 15 12.3542 15.3583 13.0125 16.075C13.6708 16.7917 14 17.65 14 18.65C13.9667 19.6 13.6125 20.3958 12.9375 21.0375C12.2625 21.6792 11.45 22 10.5 22H6ZM14 18.65C13.9167 18.3167 13.8333 17.9917 13.75 17.675C13.6667 17.3583 13.5833 17.0333 13.5 16.7C14.25 16.3833 14.8542 15.8917 15.3125 15.225C15.7708 14.5583 16 13.8167 16 13C16 11.9 15.6083 10.9583 14.825 10.175C14.0417 9.39167 13.1 9 12 9C11 9 10.125 9.325 9.375 9.975C8.625 10.625 8.18333 11.45 8.05 12.45C7.71667 12.3667 7.375 12.2917 7.025 12.225C6.675 12.1583 6.33333 12.0833 6 12C6.23333 10.5333 6.92083 9.33333 8.0625 8.4C9.20417 7.46667 10.5167 7 12 7C13.6667 7 15.0833 7.58333 16.25 8.75C17.4167 9.91667 18 11.3333 18 13C18 14.2833 17.6333 15.4375 16.9 16.4625C16.1667 17.4875 15.2 18.2167 14 18.65Z" fill="white"/>
</g>
</svg>
