<svg width="24" height="24" viewBox="0 0 24 24" fill="none" xmlns="http://www.w3.org/2000/svg">
<mask id="mask0_56_228" style="mask-type:alpha" maskUnits="userSpaceOnUse" x="0" y="0" width="24" height="24">
<rect width="24" height="24" fill="#D9D9D9"/>
</mask>
<g mask="url(#mask0_56_228)">
<path d="M14.2706 8.075C14.2706 7.35833 14.0432 6.78333 13.5883 6.35C13.1334 5.91667 12.5309 5.7 11.7807 5.7C11.3178 5.7 10.8988 5.80417 10.5238 6.0125C10.1487 6.22083 9.82545 6.525 9.55411 6.925C9.29873 7.30833 8.95157 7.52917 8.51264 7.5875C8.07371 7.64583 7.69463 7.525 7.37541 7.225C7.15195 7.00833 7.02825 6.74167 7.00431 6.425C6.98037 6.10833 7.05618 5.80833 7.23176 5.525C7.74251 4.725 8.39293 4.10417 9.18301 3.6625C9.97309 3.22083 10.839 3 11.7807 3C13.3289 3 14.5859 3.45833 15.5515 4.375C16.5172 5.29167 17 6.49167 17 7.975C17 8.725 16.8484 9.4 16.5451 10C16.2418 10.6 15.6832 11.3083 14.8692 12.125C14.2786 12.7083 13.8796 13.1625 13.6721 13.4875C13.4646 13.8125 13.3289 14.1833 13.2651 14.6C13.2012 15 13.0376 15.3333 12.7743 15.6C12.5109 15.8667 12.1957 16 11.8286 16C11.4615 16 11.1462 15.8708 10.8829 15.6125C10.6195 15.3542 10.4878 15.0333 10.4878 14.65C10.4878 14 10.6235 13.4042 10.8948 12.8625C11.1662 12.3208 11.6211 11.75 12.2595 11.15C13.0735 10.4 13.6122 9.82083 13.8756 9.4125C14.139 9.00417 14.2706 8.55833 14.2706 8.075ZM11.7807 22C11.254 22 10.8031 21.8042 10.428 21.4125C10.0529 21.0208 9.86535 20.55 9.86535 20C9.86535 19.45 10.0529 18.9792 10.428 18.5875C10.8031 18.1958 11.254 18 11.7807 18C12.3074 18 12.7583 18.1958 13.1334 18.5875C13.5085 18.9792 13.696 19.45 13.696 20C13.696 20.55 13.5085 21.0208 13.1334 21.4125C12.7583 21.8042 12.3074 22 11.7807 22Z" fill="white"/>
</g>
</svg>
