<svg width="24" height="24" viewBox="0 0 24 24" fill="none" xmlns="http://www.w3.org/2000/svg">
<path d="M17.65 6.35C16.2 4.9 14.21 4 12 4C9.87827 4 7.84344 4.84285 6.34315 6.34315C4.84285 7.84344 4 9.87827 4 12C4 14.1217 4.84285 16.1566 6.34315 17.6569C7.84344 19.1571 9.87827 20 12 20C15.2567 20 18.0408 18.0561 19.2872 15.2665C19.5647 14.6455 19.0671 14 18.3869 14C17.9454 14 17.5598 14.2831 17.363 14.6783C16.382 16.6474 14.349 18 12 18C10.4087 18 8.88258 17.3679 7.75736 16.2426C6.63214 15.1174 6 13.5913 6 12C6 10.4087 6.63214 8.88258 7.75736 7.75736C8.88258 6.63214 10.4087 6 12 6C13.66 6 15.14 6.69 16.22 7.78L13 11H20V4L17.65 6.35Z" fill="white"/>
</svg>
