<svg width="24" height="24" viewBox="0 0 24 24" fill="none" xmlns="http://www.w3.org/2000/svg">
<mask id="mask0_56_142" style="mask-type:alpha" maskUnits="userSpaceOnUse" x="0" y="0" width="24" height="24">
<rect width="24" height="24" fill="#D9D9D9"/>
</mask>
<g mask="url(#mask0_56_142)">
<path d="M5.93182 15.2607C6.74383 15.2526 7.43076 15.5311 7.99335 16.0976C8.55587 16.6641 8.83331 17.356 8.82538 18.1738C8.81734 18.9919 8.53166 19.6842 7.96893 20.2509C7.55674 20.666 6.9006 21.0157 5.99823 21.2978C5.10061 21.5785 3.79271 21.8362 2.0744 22.0742C2.31077 20.3439 2.56579 19.0243 2.83905 18.1152C3.11384 17.2009 3.45819 16.5371 3.8703 16.122C4.43294 15.5555 5.11979 15.2688 5.93182 15.2607ZM15.633 3.38472C17.4489 2.68141 19.4123 2.4282 21.5236 2.62593C21.7201 4.75257 21.4728 6.73167 20.7824 8.56343C20.0902 10.3997 18.9308 12.1377 17.3029 13.7773C17.2921 13.7881 17.2814 13.7996 17.2707 13.8105C17.2599 13.8214 17.2483 13.832 17.2375 13.8427L17.2297 13.8505L17.2326 13.8613L17.7502 16.4628C17.8034 16.7311 17.79 16.9912 17.7101 17.2431C17.6302 17.4952 17.4947 17.7178 17.3029 17.9111L13.1955 22.0625L11.1516 17.2578L11.133 17.2656L11.1535 17.2568L11.1476 17.2509L7.01093 13.0849L7.0119 13.0839L7.00409 13.08L2.23163 11.0214L6.34686 6.8857C6.53884 6.69235 6.76182 6.55505 7.01483 6.47456C7.26748 6.39425 7.52686 6.38101 7.79315 6.43452L10.3762 6.95601L10.3869 6.95894L10.3947 6.95113C10.4044 6.94151 10.4135 6.934 10.4221 6.92964C10.4351 6.92302 10.4473 6.91328 10.4592 6.90132C12.0873 5.26175 13.8122 4.09017 15.633 3.38472ZM5.91913 16.8251C5.5466 16.8334 5.23358 16.9752 4.98163 17.2509C4.77358 17.4714 4.58341 17.8295 4.41034 18.3222C4.23722 18.8155 4.09659 19.4083 3.98846 20.0996L3.98456 20.1279L4.0119 20.123C4.69808 20.0141 5.28659 19.8738 5.77655 19.7021C6.26604 19.5305 6.62201 19.3404 6.841 19.1308L6.84003 19.1298C7.11361 18.8762 7.25688 18.5623 7.26776 18.1875C7.2774 17.8592 7.18172 17.5686 6.98163 17.3164L6.88983 17.2099H6.88885C6.61509 16.9453 6.29165 16.8169 5.91913 16.8251ZM15.8156 15.0234C15.3306 15.3707 14.8291 15.6948 14.3117 15.996C13.794 16.2975 13.2651 16.5838 12.7258 16.8554L12.7092 16.8642L12.716 16.8828L13.7121 19.2548L13.7238 19.2832L13.7463 19.2617L16.1906 16.7988L16.1984 16.791L16.1965 16.7802L15.8488 15.0361L15.842 15.0039L15.8156 15.0234ZM20.0051 4.14351C18.4586 4.1489 16.9928 4.46568 15.6086 5.09468C14.2245 5.72364 12.9061 6.67009 11.6525 7.93257C11.0902 8.49886 10.5409 9.18477 10.006 9.99019C9.47121 10.7954 9.02002 11.6227 8.65253 12.4716L8.64667 12.4843L8.65741 12.4941L11.7336 15.5839L11.7433 15.5947L11.756 15.5888C12.5991 15.2188 13.4212 14.7643 14.2209 14.2255C15.0203 13.6869 15.7015 13.1347 16.2639 12.5683C17.5173 11.3059 18.4567 9.97824 19.0812 8.58687C19.7056 7.19556 20.0201 5.72108 20.0256 4.16402V4.14351H20.0051ZM7.45917 8.00581L5.01385 10.4677L4.99237 10.4892L5.02069 10.5019L7.36835 11.5039L7.3869 11.5117L7.39569 11.4941C7.66517 10.9512 7.95113 10.4187 8.25311 9.89742C8.555 9.37634 8.87797 8.87128 9.22284 8.38277L9.24139 8.3564L9.21014 8.35054L7.47772 7.99995L7.46698 7.998L7.45917 8.00581ZM15.0832 7.3564C15.5798 7.3564 15.9953 7.52591 16.3312 7.86421C16.6671 8.20251 16.8351 8.61978 16.8351 9.11714C16.8351 9.61446 16.6671 10.0318 16.3312 10.3701C15.9954 10.7083 15.5797 10.8769 15.0832 10.8769C14.5867 10.8769 14.171 10.7083 13.8351 10.3701C13.4993 10.0318 13.3313 9.61446 13.3312 9.11714C13.3312 8.61977 13.4993 8.20252 13.8351 7.86421C14.1711 7.52591 14.5866 7.3564 15.0832 7.3564Z" fill="white" stroke="white" stroke-width="0.0416667"/>
</g>
</svg>
