<svg width="24" height="24" viewBox="0 0 24 24" fill="none" xmlns="http://www.w3.org/2000/svg">
<mask id="mask0_56_237" style="mask-type:alpha" maskUnits="userSpaceOnUse" x="0" y="0" width="24" height="24">
<rect width="24" height="24" fill="#D9D9D9"/>
</mask>
<g mask="url(#mask0_56_237)">
<path d="M9 12.0615H8.25C8.03333 12.0615 7.85417 11.9907 7.7125 11.8491C7.57083 11.7074 7.5 11.5283 7.5 11.3116C7.5 11.095 7.57083 10.9159 7.7125 10.7742C7.85417 10.6326 8.03333 10.5618 8.25 10.5618H9.75C9.96667 10.5618 10.1458 10.6326 10.2875 10.7742C10.4292 10.9159 10.5 11.095 10.5 11.3116V15.811C10.5 16.0276 10.4292 16.2068 10.2875 16.3484C10.1458 16.4901 9.96667 16.5609 9.75 16.5609C9.53333 16.5609 9.35417 16.4901 9.2125 16.3484C9.07083 16.2068 9 16.0276 9 15.811V12.0615ZM12.5 16.5609C12.2167 16.5609 11.9792 16.4651 11.7875 16.2734C11.5958 16.0818 11.5 15.8443 11.5 15.561V11.5616C11.5 11.2783 11.5958 11.0408 11.7875 10.8492C11.9792 10.6576 12.2167 10.5618 12.5 10.5618H14.5C14.7833 10.5618 15.0208 10.6576 15.2125 10.8492C15.4042 11.0408 15.5 11.2783 15.5 11.5616V15.561C15.5 15.8443 15.4042 16.0818 15.2125 16.2734C15.0208 16.4651 14.7833 16.5609 14.5 16.5609H12.5ZM13 15.0611H14V12.0615H13V15.0611ZM12 22.56C10.75 22.56 9.57917 22.3225 8.4875 21.8476C7.39583 21.3727 6.44583 20.7311 5.6375 19.9229C4.82917 19.1147 4.1875 18.1648 3.7125 17.0733C3.2375 15.9818 3 14.8111 3 13.5613C3 13.278 3.09583 13.0406 3.2875 12.8489C3.47917 12.6573 3.71667 12.5615 4 12.5615C4.28333 12.5615 4.52083 12.6573 4.7125 12.8489C4.90417 13.0406 5 13.278 5 13.5613C5 15.511 5.67917 17.165 7.0375 18.5231C8.39583 19.8812 10.05 20.5603 12 20.5603C13.95 20.5603 15.6042 19.8812 16.9625 18.5231C18.3208 17.165 19 15.511 19 13.5613C19 11.6116 18.3208 9.95767 16.9625 8.59954C15.6042 7.2414 13.95 6.56233 12 6.56233H11.85L12.7 7.41221C12.9 7.61218 12.9958 7.84548 12.9875 8.11211C12.9792 8.37874 12.8833 8.61203 12.7 8.81201C12.5 9.01198 12.2625 9.11613 11.9875 9.12446C11.7125 9.13279 11.475 9.03697 11.275 8.837L8.7 6.26238C8.5 6.06241 8.4 5.82911 8.4 5.56248C8.4 5.29585 8.5 5.06255 8.7 4.86258L11.275 2.28796C11.475 2.08799 11.7125 1.99217 11.9875 2.0005C12.2625 2.00883 12.5 2.11298 12.7 2.31295C12.8833 2.51293 12.9792 2.74622 12.9875 3.01285C12.9958 3.27948 12.9 3.51278 12.7 3.71275L11.85 4.56263H12C13.25 4.56263 14.4208 4.80009 15.5125 5.27502C16.6042 5.74995 17.5542 6.39153 18.3625 7.19974C19.1708 8.00796 19.8125 8.95782 20.2875 10.0493C20.7625 11.1408 21 12.3115 21 13.5613C21 14.8111 20.7625 15.9818 20.2875 17.0733C19.8125 18.1648 19.1708 19.1147 18.3625 19.9229C17.5542 20.7311 16.6042 21.3727 15.5125 21.8476C14.4208 22.3225 13.25 22.56 12 22.56Z" fill="white"/>
</g>
</svg>
