<svg width="24" height="24" viewBox="0 0 24 24" fill="none" xmlns="http://www.w3.org/2000/svg">
<mask id="mask0_56_293" style="mask-type:alpha" maskUnits="userSpaceOnUse" x="0" y="0" width="24" height="24">
<rect width="24" height="24" fill="#D9D9D9"/>
</mask>
<g mask="url(#mask0_56_293)">
<path d="M12 13.73C11.8333 13.73 11.6708 13.7092 11.5125 13.6675C11.3542 13.6259 11.2 13.5634 11.05 13.48L2.60001 8.88003C2.41667 8.78003 2.28751 8.65503 2.21251 8.50503C2.13751 8.35503 2.10001 8.18836 2.10001 8.00503C2.10001 7.8217 2.13751 7.65503 2.21251 7.50503C2.28751 7.35503 2.41667 7.23003 2.60001 7.13003L11.05 2.53003C11.2 2.4467 11.3542 2.3842 11.5125 2.34253C11.6708 2.30086 11.8333 2.28003 12 2.28003C12.1667 2.28003 12.3292 2.30086 12.4875 2.34253C12.6458 2.3842 12.8 2.4467 12.95 2.53003L21.4 7.13003C21.5833 7.23003 21.7125 7.35503 21.7875 7.50503C21.8625 7.65503 21.9 7.8217 21.9 8.00503C21.9 8.18836 21.8625 8.35503 21.7875 8.50503C21.7125 8.65503 21.5833 8.78003 21.4 8.88003L12.95 13.48C12.8 13.5634 12.6458 13.6259 12.4875 13.6675C12.3292 13.7092 12.1667 13.73 12 13.73ZM12 11.73L18.825 8.00503L12 4.28003L5.17501 8.00503L12 11.73ZM12 15.73L19.85 11.455C19.8833 11.4384 20.0417 11.3967 20.325 11.33C20.6083 11.33 20.8458 11.4259 21.0375 11.6175C21.2292 11.8092 21.325 12.0467 21.325 12.33C21.325 12.5134 21.2833 12.68 21.2 12.83C21.1167 12.98 20.9833 13.105 20.8 13.205L12.95 17.48C12.8 17.5634 12.6458 17.6259 12.4875 17.6675C12.3292 17.7092 12.1667 17.73 12 17.73C11.8333 17.73 11.6708 17.7092 11.5125 17.6675C11.3542 17.6259 11.2 17.5634 11.05 17.48L3.20001 13.205C3.01667 13.105 2.88334 12.98 2.80001 12.83C2.71667 12.68 2.67501 12.5134 2.67501 12.33C2.67501 12.0467 2.77084 11.8092 2.96251 11.6175C3.15417 11.4259 3.39167 11.33 3.67501 11.33C3.75834 11.33 3.83751 11.3425 3.91251 11.3675C3.98751 11.3925 4.06667 11.4217 4.15001 11.455L12 15.73ZM12 19.73L19.85 15.455C19.8833 15.4384 20.0417 15.3967 20.325 15.33C20.6083 15.33 20.8458 15.4259 21.0375 15.6175C21.2292 15.8092 21.325 16.0467 21.325 16.33C21.325 16.5134 21.2833 16.68 21.2 16.83C21.1167 16.98 20.9833 17.105 20.8 17.205L12.95 21.48C12.8 21.5634 12.6458 21.6259 12.4875 21.6675C12.3292 21.7092 12.1667 21.73 12 21.73C11.8333 21.73 11.6708 21.7092 11.5125 21.6675C11.3542 21.6259 11.2 21.5634 11.05 21.48L3.20001 17.205C3.01667 17.105 2.88334 16.98 2.80001 16.83C2.71667 16.68 2.67501 16.5134 2.67501 16.33C2.67501 16.0467 2.77084 15.8092 2.96251 15.6175C3.15417 15.4259 3.39167 15.33 3.67501 15.33C3.75834 15.33 3.83751 15.3425 3.91251 15.3675C3.98751 15.3925 4.06667 15.4217 4.15001 15.455L12 19.73Z" fill="white"/>
</g>
</svg>
