<svg width="24" height="24" viewBox="0 0 24 24" fill="none" xmlns="http://www.w3.org/2000/svg">
<mask id="mask0_56_340" style="mask-type:alpha" maskUnits="userSpaceOnUse" x="0" y="0" width="24" height="24">
<rect width="24" height="24" fill="#D9D9D9"/>
</mask>
<g mask="url(#mask0_56_340)">
<path d="M9.50185 16.0037C7.68467 16.0037 6.14673 15.3744 4.88804 14.1157C3.62935 12.857 3 11.319 3 9.50185C3 7.68467 3.62935 6.14673 4.88804 4.88804C6.14673 3.62935 7.68467 3 9.50185 3C11.319 3 12.857 3.62935 14.1157 4.88804C15.3744 6.14673 16.0037 7.68467 16.0037 9.50185C16.0037 10.2354 15.887 10.9273 15.6536 11.5774C15.4202 12.2276 15.1034 12.8028 14.7033 13.3029L20.3049 18.9045C20.4883 19.0879 20.58 19.3213 20.58 19.6047C20.58 19.8881 20.4883 20.1215 20.3049 20.3049C20.1215 20.4883 19.8881 20.58 19.6047 20.58C19.3213 20.58 19.0879 20.4883 18.9045 20.3049L13.3029 14.7033C12.8028 15.1034 12.2276 15.4202 11.5774 15.6536C10.9273 15.887 10.2354 16.0037 9.50185 16.0037ZM9.50185 14.0031C10.7522 14.0031 11.815 13.5655 12.6903 12.6903C13.5655 11.815 14.0031 10.7522 14.0031 9.50185C14.0031 8.25149 13.5655 7.18869 12.6903 6.31344C11.815 5.43819 10.7522 5.00057 9.50185 5.00057C8.25149 5.00057 7.18869 5.43819 6.31344 6.31344C5.43819 7.18869 5.00057 8.25149 5.00057 9.50185C5.00057 10.7522 5.43819 11.815 6.31344 12.6903C7.18869 13.5655 8.25149 14.0031 9.50185 14.0031Z" fill="white"/>
</g>
</svg>
