<svg width="24" height="24" viewBox="0 0 24 24" fill="none" xmlns="http://www.w3.org/2000/svg">
<mask id="mask0_56_250" style="mask-type:alpha" maskUnits="userSpaceOnUse" x="0" y="0" width="24" height="24">
<rect width="24" height="24" transform="matrix(-1 0 0 1 24 0)" fill="#D9D9D9"/>
</mask>
<g mask="url(#mask0_56_250)">
<path d="M20 18C20.2833 18 20.5208 17.9042 20.7125 17.7125C20.9042 17.5208 21 17.2833 21 17C21 16.7167 20.9042 16.4792 20.7125 16.2875C20.5208 16.0958 20.2833 16 20 16H16C15.7167 16 15.4792 16.0958 15.2875 16.2875C15.0958 16.4792 15 16.7167 15 17C15 17.2833 15.0958 17.5208 15.2875 17.7125C15.4792 17.9042 15.7167 18 16 18H20ZM20 13C20.2833 13 20.5208 12.9042 20.7125 12.7125C20.9042 12.5208 21 12.2833 21 12C21 11.7167 20.9042 11.4792 20.7125 11.2875C20.5208 11.0958 20.2833 11 20 11H10C9.71667 11 9.47917 11.0958 9.2875 11.2875C9.09583 11.4792 9 11.7167 9 12C9 12.2833 9.09583 12.5208 9.2875 12.7125C9.47917 12.9042 9.71667 13 10 13H20ZM20 8C20.2833 8 20.5208 7.90417 20.7125 7.7125C20.9042 7.52083 21 7.28333 21 7C21 6.71667 20.9042 6.47917 20.7125 6.2875C20.5208 6.09583 20.2833 6 20 6H4C3.71667 6 3.47917 6.09583 3.2875 6.2875C3.09583 6.47917 3 6.71667 3 7C3 7.28333 3.09583 7.52083 3.2875 7.7125C3.47917 7.90417 3.71667 8 4 8H20Z" fill="white"/>
</g>
</svg>
