<svg width="24" height="24" viewBox="0 0 24 24" fill="none" xmlns="http://www.w3.org/2000/svg">
<mask id="mask0_56_308" style="mask-type:alpha" maskUnits="userSpaceOnUse" x="0" y="0" width="24" height="24">
<rect width="24" height="24" fill="#D9D9D9"/>
</mask>
<g mask="url(#mask0_56_308)">
<path d="M14.4152 23C14.1442 23 13.913 22.9083 13.7217 22.725C13.5304 22.5417 13.4348 22.3145 13.4348 22.0435C13.4348 21.7725 13.5264 21.5453 13.7098 21.362C13.8931 21.1786 14.1203 21.087 14.3913 21.087C16.2565 21.087 17.8388 20.4373 19.138 19.138C20.4373 17.8388 21.087 16.2565 21.087 14.3913C21.087 14.1203 21.1786 13.8931 21.362 13.7098C21.5453 13.5264 21.7725 13.4348 22.0435 13.4348C22.3145 13.4348 22.5417 13.5264 22.725 13.7098C22.9083 13.8931 23 14.1203 23 14.3913C23 15.571 22.7728 16.683 22.3185 17.7272C21.8641 18.7714 21.2504 19.6841 20.4772 20.4652C19.704 21.2464 18.7953 21.8641 17.7511 22.3185C16.7069 22.7728 15.5949 23 14.4152 23ZM14.4152 19.1739C14.1442 19.1739 13.913 19.0822 13.7217 18.8989C13.5304 18.7156 13.4348 18.4884 13.4348 18.2174C13.4348 17.9464 13.5264 17.7192 13.7098 17.5359C13.8931 17.3525 14.1203 17.2609 14.3913 17.2609C15.1884 17.2609 15.8659 16.9819 16.4239 16.4239C16.9819 15.8659 17.2609 15.1884 17.2609 14.3913C17.2609 14.1203 17.3525 13.8931 17.5359 13.7098C17.7192 13.5264 17.9464 13.4348 18.2174 13.4348C18.4884 13.4348 18.7156 13.5264 18.8989 13.7098C19.0822 13.8931 19.1739 14.1203 19.1739 14.3913C19.158 15.7145 18.6917 16.8384 17.775 17.763C16.8583 18.6877 15.7384 19.158 14.4152 19.1739ZM6.3087 22.4022C6.06957 22.4022 5.83043 22.3543 5.5913 22.2587C5.35217 22.163 5.13696 22.0275 4.94565 21.8522L1.55 18.4565C1.37464 18.2652 1.23913 18.05 1.14348 17.8109C1.04783 17.5717 1 17.3326 1 17.0935C1 16.8384 1.04783 16.5953 1.14348 16.3641C1.23913 16.133 1.37464 15.9297 1.55 15.7543L4.58696 12.7174C4.95362 12.3507 5.40797 12.1634 5.95 12.1554C6.49203 12.1475 6.94638 12.3268 7.31304 12.6935L8.5087 13.8891L9.17826 13.2196L7.98261 12.0239C7.61594 11.6572 7.43261 11.2109 7.43261 10.6848C7.43261 10.1587 7.61594 9.71232 7.98261 9.34565L9.34565 7.98261C9.71232 7.61594 10.1627 7.43261 10.6967 7.43261C11.2308 7.43261 11.6812 7.61594 12.0478 7.98261L13.2435 9.17826L13.913 8.5087L12.7174 7.31304C12.3507 6.94638 12.1674 6.49601 12.1674 5.96196C12.1674 5.4279 12.3507 4.97754 12.7174 4.61087L15.7543 1.57391C15.9457 1.38261 16.1609 1.23913 16.4 1.14348C16.6391 1.04783 16.8783 1 17.1174 1C17.3565 1 17.5917 1.04783 17.8228 1.14348C18.054 1.23913 18.2652 1.38261 18.4565 1.57391L21.8522 4.96957C22.0435 5.14493 22.183 5.34819 22.2707 5.57935C22.3583 5.81051 22.4022 6.05362 22.4022 6.3087C22.4022 6.54783 22.3583 6.78696 22.2707 7.02609C22.183 7.26522 22.0435 7.48043 21.8522 7.67174L18.8152 10.7087C18.4486 11.0754 17.9982 11.2587 17.4641 11.2587C16.9301 11.2587 16.4797 11.0754 16.113 10.7087L14.9174 9.51304L14.2478 10.1826L15.4435 11.3783C15.8101 11.7449 15.9895 12.1953 15.9815 12.7293C15.9735 13.2634 15.7862 13.7138 15.4196 14.0804L14.0804 15.4196C13.7138 15.7862 13.2634 15.9696 12.7293 15.9696C12.1953 15.9696 11.7449 15.7862 11.3783 15.4196L10.1826 14.2239L9.51304 14.8935L10.7087 16.0891C11.0754 16.4558 11.2547 16.9101 11.2467 17.4522C11.2388 17.9942 11.0514 18.4486 10.6848 18.8152L7.64783 21.8522C7.47246 22.0275 7.2692 22.163 7.03804 22.2587C6.80688 22.3543 6.56377 22.4022 6.3087 22.4022ZM6.3087 20.513L7.31304 19.5087L3.91739 16.113L2.91304 17.1174L6.3087 20.513ZM8.3413 18.4804L9.34565 17.4761L5.95 14.0804L4.94565 15.0848L8.3413 18.4804ZM12.7413 14.0804L14.0804 12.7413L10.6848 9.34565L9.34565 10.6848L12.7413 14.0804ZM17.4761 9.34565L18.4804 8.3413L15.0848 4.94565L14.0804 5.95L17.4761 9.34565ZM19.5087 7.31304L20.513 6.3087L17.1174 2.91304L16.113 3.91739L19.5087 7.31304Z" fill="white"/>
</g>
</svg>
