<svg width="24" height="24" viewBox="0 0 24 24" fill="none" xmlns="http://www.w3.org/2000/svg">
<mask id="mask0_56_271" style="mask-type:alpha" maskUnits="userSpaceOnUse" x="0" y="0" width="24" height="24">
<rect width="24" height="24" fill="#D9D9D9"/>
</mask>
<g mask="url(#mask0_56_271)">
<path d="M5 21C4.45 21 3.97917 20.8042 3.5875 20.4125C3.19583 20.0208 3 19.55 3 19V5C3 4.45 3.19583 3.97917 3.5875 3.5875C3.97917 3.19583 4.45 3 5 3H19C19.55 3 20.0208 3.19583 20.4125 3.5875C20.8042 3.97917 21 4.45 21 5V19C21 19.55 20.8042 20.0208 20.4125 20.4125C20.0208 20.8042 19.55 21 19 21H5ZM5 19H19V12H5V19ZM17 8C17.2833 8 17.5208 7.90417 17.7125 7.7125C17.9042 7.52083 18 7.28333 18 7C18 6.71667 17.9042 6.47917 17.7125 6.2875C17.5208 6.09583 17.2833 6 17 6H13C12.7167 6 12.4792 6.09583 12.2875 6.2875C12.0958 6.47917 12 6.71667 12 7C12 7.28333 12.0958 7.52083 12.2875 7.7125C12.4792 7.90417 12.7167 8 13 8H17Z" fill="white"/>
</g>
</svg>
