<svg width="24" height="24" viewBox="0 0 24 24" fill="none" xmlns="http://www.w3.org/2000/svg">
<mask id="mask0_56_290" style="mask-type:alpha" maskUnits="userSpaceOnUse" x="0" y="0" width="24" height="24">
<rect width="24" height="24" fill="#D9D9D9"/>
</mask>
<g mask="url(#mask0_56_290)">
<path d="M12 18.0044C12.4335 18.0044 12.7919 17.8627 13.0753 17.5793C13.3587 17.2959 13.5004 16.9374 13.5004 16.504C13.5004 16.0705 13.3587 15.7121 13.0753 15.4286C12.7919 15.1452 12.4335 15.0035 12 15.0035C11.5665 15.0035 11.2081 15.1452 10.9247 15.4286C10.6413 15.7121 10.4996 16.0705 10.4996 16.504C10.4996 16.9374 10.6413 17.2959 10.9247 17.5793C11.2081 17.8627 11.5665 18.0044 12 18.0044ZM12 13.5031C12.4335 13.5031 12.7919 13.3614 13.0753 13.078C13.3587 12.7945 13.5004 12.4361 13.5004 12.0026C13.5004 11.5692 13.3587 11.2107 13.0753 10.9273C12.7919 10.6439 12.4335 10.5022 12 10.5022C11.5665 10.5022 11.2081 10.6439 10.9247 10.9273C10.6413 11.2107 10.4996 11.5692 10.4996 12.0026C10.4996 12.4361 10.6413 12.7945 10.9247 13.078C11.2081 13.3614 11.5665 13.5031 12 13.5031ZM12 9.00176C12.4335 9.00176 12.7919 8.86005 13.0753 8.57664C13.3587 8.29322 13.5004 7.93478 13.5004 7.50132C13.5004 7.06786 13.3587 6.70942 13.0753 6.42601C12.7919 6.14259 12.4335 6.00088 12 6.00088C11.5665 6.00088 11.2081 6.14259 10.9247 6.42601C10.6413 6.70942 10.4996 7.06786 10.4996 7.50132C10.4996 7.93478 10.6413 8.29322 10.9247 8.57664C11.2081 8.86005 11.5665 9.00176 12 9.00176ZM6.99853 15.0035V13.8532C6.315 13.6698 5.71482 13.3322 5.198 12.8404C4.68118 12.3486 4.33108 11.7609 4.14769 11.0774C4.11435 10.794 4.18937 10.5439 4.37276 10.3272C4.55615 10.1104 4.78955 10.0021 5.07297 10.0021H6.99853V8.85172C6.315 8.66833 5.71482 8.33073 5.198 7.83892C4.68118 7.34711 4.33108 6.75944 4.14769 6.0759C4.11435 5.79249 4.18937 5.54241 4.37276 5.32568C4.55615 5.10895 4.78955 5.00059 5.07297 5.00059H6.99853C6.99853 4.45043 7.19442 3.97945 7.5862 3.58767C7.97799 3.19589 8.44896 3 8.99912 3H15.0009C15.551 3 16.022 3.19589 16.4138 3.58767C16.8056 3.97945 17.0015 4.45043 17.0015 5.00059H18.927C19.2105 5.00059 19.4439 5.10895 19.6272 5.32568C19.8106 5.54241 19.8856 5.79249 19.8523 6.0759C19.6689 6.75944 19.3188 7.34711 18.802 7.83892C18.2852 8.33073 17.685 8.66833 17.0015 8.85172V10.0021H18.927C19.2105 10.0021 19.4439 10.1104 19.6272 10.3272C19.8106 10.5439 19.8856 10.794 19.8523 11.0774C19.6689 11.7609 19.3188 12.3486 18.802 12.8404C18.2852 13.3322 17.685 13.6698 17.0015 13.8532V15.0035H18.927C19.2105 15.0035 19.4439 15.1119 19.6272 15.3286C19.8106 15.5453 19.8856 15.7954 19.8523 16.0788C19.6689 16.7624 19.3188 17.35 18.802 17.8419C18.2852 18.3337 17.685 18.6713 17.0015 18.8547V19.0047C17.0015 19.5549 16.8056 20.0258 16.4138 20.4176C16.022 20.8094 15.551 21.0053 15.0009 21.0053H8.99912C8.44896 21.0053 7.97799 20.8094 7.5862 20.4176C7.19442 20.0258 6.99853 19.5549 6.99853 19.0047V18.8547C6.315 18.6713 5.71482 18.3337 5.198 17.8419C4.68118 17.35 4.33108 16.7624 4.14769 16.0788C4.11435 15.7954 4.18937 15.5453 4.37276 15.3286C4.55615 15.1119 4.78955 15.0035 5.07297 15.0035H6.99853ZM8.99912 19.0047H15.0009V5.00059H8.99912V19.0047Z" fill="white"/>
</g>
</svg>
