<svg width="24" height="24" viewBox="0 0 24 24" fill="none" xmlns="http://www.w3.org/2000/svg">
<mask id="mask0_56_268" style="mask-type:alpha" maskUnits="userSpaceOnUse" x="0" y="0" width="24" height="24">
<rect width="24" height="24" fill="#D9D9D9"/>
</mask>
<g mask="url(#mask0_56_268)">
<path d="M12 22C10.6167 22 9.31667 21.7375 8.1 21.2125C6.88333 20.6875 5.825 19.975 4.925 19.075C4.025 18.175 3.3125 17.1167 2.7875 15.9C2.2625 14.6833 2 13.3833 2 12C2 10.6167 2.2625 9.31667 2.7875 8.1C3.3125 6.88333 4.025 5.825 4.925 4.925C5.825 4.025 6.88333 3.3125 8.1 2.7875C9.31667 2.2625 10.6167 2 12 2C12.2833 2 12.5208 2.09583 12.7125 2.2875C12.9042 2.47917 13 2.71667 13 3V10.275C13.3 10.4583 13.5417 10.6958 13.725 10.9875C13.9083 11.2792 14 11.6167 14 12C14 12.55 13.8042 13.0208 13.4125 13.4125C13.0208 13.8042 12.55 14 12 14C11.45 14 10.9792 13.8042 10.5875 13.4125C10.1958 13.0208 10 12.55 10 12C10 11.6167 10.0917 11.275 10.275 10.975C10.4583 10.675 10.7 10.4417 11 10.275V8.125C10.1333 8.35833 9.41667 8.82917 8.85 9.5375C8.28333 10.2458 8 11.0667 8 12C8 13.1 8.39167 14.0417 9.175 14.825C9.95833 15.6083 10.9 16 12 16C13.1 16 14.0417 15.6083 14.825 14.825C15.6083 14.0417 16 13.1 16 12C16 11.5667 15.9375 11.1667 15.8125 10.8C15.6875 10.4333 15.5167 10.0833 15.3 9.75C15.1333 9.51667 15.0583 9.25833 15.075 8.975C15.0917 8.69167 15.1917 8.45833 15.375 8.275C15.575 8.075 15.8125 7.975 16.0875 7.975C16.3625 7.975 16.5833 8.09167 16.75 8.325C17.1333 8.84167 17.4375 9.40833 17.6625 10.025C17.8875 10.6417 18 11.3 18 12C18 13.6667 17.4167 15.0833 16.25 16.25C15.0833 17.4167 13.6667 18 12 18C10.3333 18 8.91667 17.4167 7.75 16.25C6.58333 15.0833 6 13.6667 6 12C6 10.5 6.475 9.19583 7.425 8.0875C8.375 6.97917 9.56667 6.30833 11 6.075V4.05C9.01667 4.3 7.35417 5.175 6.0125 6.675C4.67083 8.175 4 9.95 4 12C4 14.2333 4.775 16.125 6.325 17.675C7.875 19.225 9.76667 20 12 20C14.2333 20 16.125 19.225 17.675 17.675C19.225 16.125 20 14.2333 20 12C20 11.0333 19.8417 10.1208 19.525 9.2625C19.2083 8.40417 18.7583 7.625 18.175 6.925C17.9917 6.70833 17.9 6.45833 17.9 6.175C17.9 5.89167 18 5.65 18.2 5.45C18.4 5.25 18.6375 5.15417 18.9125 5.1625C19.1875 5.17083 19.4167 5.28333 19.6 5.5C20.35 6.38333 20.9375 7.375 21.3625 8.475C21.7875 9.575 22 10.75 22 12C22 13.3833 21.7375 14.6833 21.2125 15.9C20.6875 17.1167 19.975 18.175 19.075 19.075C18.175 19.975 17.1167 20.6875 15.9 21.2125C14.6833 21.7375 13.3833 22 12 22Z" fill="white"/>
</g>
</svg>
