<svg width="24" height="24" viewBox="0 0 24 24" fill="none" xmlns="http://www.w3.org/2000/svg">
<mask id="mask0_56_150" style="mask-type:alpha" maskUnits="userSpaceOnUse" x="0" y="0" width="24" height="24">
<rect width="24" height="24" fill="#D9D9D9"/>
</mask>
<g mask="url(#mask0_56_150)">
<path d="M5.46559 22V14.5H4V9C4 8.45 4.19134 7.97917 4.57402 7.5875C4.9567 7.19583 5.41674 7 5.95412 7H8.88529C9.42268 7 9.88271 7.19583 10.2654 7.5875C10.6481 7.97917 10.8394 8.45 10.8394 9V14.5H9.37382V22H5.46559ZM7.41971 6C6.88232 6 6.42229 5.80417 6.03961 5.4125C5.65693 5.02083 5.46559 4.55 5.46559 4C5.46559 3.45 5.65693 2.97917 6.03961 2.5875C6.42229 2.19583 6.88232 2 7.41971 2C7.95709 2 8.41712 2.19583 8.7998 2.5875C9.18248 2.97917 9.37382 3.45 9.37382 4C9.37382 4.55 9.18248 5.02083 8.7998 5.4125C8.41712 5.80417 7.95709 6 7.41971 6ZM14.7476 22V16H11.8165L14.308 8.35C14.4382 7.91667 14.6784 7.58333 15.0286 7.35C15.3787 7.11667 15.7736 7 16.2132 7C16.6529 7 17.0478 7.11667 17.3979 7.35C17.748 7.58333 17.9882 7.91667 18.1185 8.35L20.61 16H17.6788V22H14.7476ZM16.2132 6C15.6759 6 15.2158 5.80417 14.8331 5.4125C14.4505 5.02083 14.2591 4.55 14.2591 4C14.2591 3.45 14.4505 2.97917 14.8331 2.5875C15.2158 2.19583 15.6759 2 16.2132 2C16.7506 2 17.2107 2.19583 17.5933 2.5875C17.976 2.97917 18.1674 3.45 18.1674 4C18.1674 4.55 17.976 5.02083 17.5933 5.4125C17.2107 5.80417 16.7506 6 16.2132 6Z" fill="white"/>
</g>
</svg>
