<svg width="24" height="24" viewBox="0 0 24 24" fill="none" xmlns="http://www.w3.org/2000/svg">
<path d="M3.89541 21H20.1146C21.7731 21 22.807 19.2325 21.9777 17.8249L13.8681 4.05571C13.0389 2.6481 10.9711 2.6481 10.1418 4.05571L2.03225 17.8249C1.20298 19.2325 2.23687 21 3.89541 21ZM12.005 13.5915C11.4127 13.5915 10.928 13.1152 10.928 12.5331V10.4164C10.928 9.83434 11.4127 9.35808 12.005 9.35808C12.5973 9.35808 13.082 9.83434 13.082 10.4164V12.5331C13.082 13.1152 12.5973 13.5915 12.005 13.5915ZM13.082 17.8249H10.928V15.7082H13.082V17.8249Z" fill="white"/>
</svg>
