<svg width="24" height="24" viewBox="0 0 24 24" fill="none" xmlns="http://www.w3.org/2000/svg">
<path d="M12.275 19.575C12.475 19.5588 12.6458 19.4816 12.7875 19.3434C12.9292 19.2053 13 19.0387 13 18.8438C13 18.6163 12.925 18.4334 12.775 18.2953C12.625 18.1572 12.4333 18.0963 12.2 18.1125C11.5167 18.1613 10.7917 17.9784 10.025 17.5641C9.25833 17.1497 8.775 16.3981 8.575 15.3094C8.54167 15.1306 8.45417 14.9844 8.3125 14.8706C8.17083 14.7569 8.00833 14.7 7.825 14.7C7.59167 14.7 7.4 14.7853 7.25 14.9559C7.1 15.1266 7.05 15.3256 7.1 15.5531C7.38333 17.0319 8.05 18.0881 9.1 18.7219C10.15 19.3556 11.2083 19.64 12.275 19.575ZM12 22.5C9.71667 22.5 7.8125 21.7362 6.2875 20.2087C4.7625 18.6812 4 16.78 4 14.505C4 12.88 4.6625 11.1128 5.9875 9.20344C7.3125 7.29406 9.31667 5.22625 12 3C14.6833 5.22625 16.6875 7.29406 18.0125 9.20344C19.3375 11.1128 20 12.88 20 14.505C20 16.78 19.2375 18.6812 17.7125 20.2087C16.1875 21.7362 14.2833 22.5 12 22.5ZM12 20.55C13.7333 20.55 15.1667 19.9772 16.3 18.8316C17.4333 17.6859 18 16.2438 18 14.505C18 13.3188 17.4958 11.9781 16.4875 10.4831C15.4792 8.98813 13.9833 7.355 12 5.58375C10.0167 7.355 8.52083 8.98813 7.5125 10.4831C6.50417 11.9781 6 13.3188 6 14.505C6 16.2438 6.56667 17.6859 7.7 18.8316C8.83333 19.9772 10.2667 20.55 12 20.55Z" fill="white"/>
</svg>
