<svg width="24" height="24" viewBox="0 0 24 24" fill="none" xmlns="http://www.w3.org/2000/svg">
<mask id="mask0_56_253" style="mask-type:alpha" maskUnits="userSpaceOnUse" x="0" y="0" width="24" height="24">
<rect width="24" height="24" fill="#D9D9D9"/>
</mask>
<g mask="url(#mask0_56_253)">
<path d="M1 12C1 11.1667 1.08333 10.3667 1.25 9.6C1.41667 8.83333 1.66667 8.1 2 7.4C2.11667 7.15 2.30833 6.9875 2.575 6.9125C2.84167 6.8375 3.09167 6.86667 3.325 7C3.55833 7.13333 3.71667 7.33333 3.8 7.6C3.88333 7.86667 3.86667 8.13333 3.75 8.4C3.51667 8.95 3.33333 9.52917 3.2 10.1375C3.06667 10.7458 3 11.3667 3 12C3 12.6333 3.06667 13.2542 3.2 13.8625C3.33333 14.4708 3.51667 15.05 3.75 15.6C3.86667 15.8667 3.88333 16.1333 3.8 16.4C3.71667 16.6667 3.55833 16.8667 3.325 17C3.09167 17.1333 2.84167 17.1625 2.575 17.0875C2.30833 17.0125 2.11667 16.85 2 16.6C1.66667 15.9 1.41667 15.1667 1.25 14.4C1.08333 13.6333 1 12.8333 1 12ZM23 12C23 12.8333 22.9167 13.6333 22.75 14.4C22.5833 15.1667 22.3333 15.9 22 16.6C21.8833 16.85 21.6917 17.0125 21.425 17.0875C21.1583 17.1625 20.9083 17.1333 20.675 17C20.4417 16.8667 20.2833 16.6667 20.2 16.4C20.1167 16.1333 20.1333 15.8667 20.25 15.6C20.4833 15.05 20.6667 14.4708 20.8 13.8625C20.9333 13.2542 21 12.6333 21 12C21 11.3667 20.9333 10.7458 20.8 10.1375C20.6667 9.52917 20.4833 8.95 20.25 8.4C20.1333 8.13333 20.1167 7.86667 20.2 7.6C20.2833 7.33333 20.4417 7.13333 20.675 7C20.9083 6.86667 21.1583 6.8375 21.425 6.9125C21.6917 6.9875 21.8833 7.15 22 7.4C22.3333 8.1 22.5833 8.83333 22.75 9.6C22.9167 10.3667 23 11.1667 23 12ZM10.5 22C10.0667 22 9.67083 21.8708 9.3125 21.6125C8.95417 21.3542 8.70833 21.0083 8.575 20.575L8 18.65C7.9 18.3167 7.74583 17.9792 7.5375 17.6375C7.32917 17.2958 7.05833 16.9417 6.725 16.575C6.15833 15.9583 5.72917 15.2583 5.4375 14.475C5.14583 13.6917 5 12.8667 5 12C5 11.15 5.14583 10.3333 5.4375 9.55C5.72917 8.76667 6.15833 8.05833 6.725 7.425C7.05833 7.04167 7.32917 6.68333 7.5375 6.35C7.74583 6.01667 7.9 5.68333 8 5.35L8.575 3.425C8.70833 2.99167 8.95417 2.64583 9.3125 2.3875C9.67083 2.12917 10.0667 2 10.5 2H13.5C13.9333 2 14.3292 2.12917 14.6875 2.3875C15.0458 2.64583 15.2917 2.99167 15.425 3.425L16 5.35C16.1 5.68333 16.2542 6.02083 16.4625 6.3625C16.6708 6.70417 16.9417 7.05833 17.275 7.425C17.8417 8.04167 18.2708 8.74167 18.5625 9.525C18.8542 10.3083 19 11.1333 19 12C19 12.85 18.8542 13.6667 18.5625 14.45C18.2708 15.2333 17.8417 15.9417 17.275 16.575C16.9417 16.9583 16.6708 17.3167 16.4625 17.65C16.2542 17.9833 16.1 18.3167 16 18.65L15.425 20.575C15.2917 21.0083 15.0458 21.3542 14.6875 21.6125C14.3292 21.8708 13.9333 22 13.5 22H10.5ZM12 17C13.3833 17 14.5625 16.5125 15.5375 15.5375C16.5125 14.5625 17 13.3833 17 12C17 10.6167 16.5125 9.4375 15.5375 8.4625C14.5625 7.4875 13.3833 7 12 7C10.6167 7 9.4375 7.4875 8.4625 8.4625C7.4875 9.4375 7 10.6167 7 12C7 13.3833 7.4875 14.5625 8.4625 15.5375C9.4375 16.5125 10.6167 17 12 17ZM10.1 5.25C10.4333 5.16667 10.7542 5.1 11.0625 5.05C11.3708 5 11.6833 4.975 12 4.975C12.3167 4.975 12.6292 5 12.9375 5.05C13.2458 5.1 13.5667 5.16667 13.9 5.25L13.5 4H10.5L10.1 5.25ZM10.5 20H13.5L13.9 18.75C13.5667 18.8333 13.2458 18.8958 12.9375 18.9375C12.6292 18.9792 12.3167 19 12 19C11.6833 19 11.3708 18.9792 11.0625 18.9375C10.7542 18.8958 10.4333 18.8333 10.1 18.75L10.5 20Z" fill="white"/>
</g>
</svg>
