<svg width="24" height="24" viewBox="0 0 24 24" fill="none" xmlns="http://www.w3.org/2000/svg">
<mask id="mask0_56_184" style="mask-type:alpha" maskUnits="userSpaceOnUse" x="0" y="0" width="24" height="24">
<rect width="24" height="24" fill="#D9D9D9"/>
</mask>
<g mask="url(#mask0_56_184)">
<path d="M3 6.42857V4.71429C3 4.24286 3.15995 3.83929 3.47986 3.50357C3.79977 3.16786 4.18434 3 4.63358 3H6.26716C6.49858 3 6.69257 3.08214 6.84912 3.24643C7.00567 3.41071 7.08395 3.61429 7.08395 3.85714C7.08395 4.1 7.00567 4.30357 6.84912 4.46786C6.69257 4.63214 6.49858 4.71429 6.26716 4.71429H4.63358V6.42857C4.63358 6.67143 4.5553 6.875 4.39875 7.03929C4.2422 7.20357 4.04821 7.28571 3.81679 7.28571C3.58537 7.28571 3.39138 7.20357 3.23483 7.03929C3.07828 6.875 3 6.67143 3 6.42857ZM4.63358 20.1429C4.18434 20.1429 3.79977 19.975 3.47986 19.6393C3.15995 19.3036 3 18.9 3 18.4286V16.7143C3 16.4714 3.07828 16.2679 3.23483 16.1036C3.39138 15.9393 3.58537 15.8571 3.81679 15.8571C4.04821 15.8571 4.2422 15.9393 4.39875 16.1036C4.5553 16.2679 4.63358 16.4714 4.63358 16.7143V18.4286H6.26716C6.49858 18.4286 6.69257 18.5107 6.84912 18.675C7.00567 18.8393 7.08395 19.0429 7.08395 19.2857C7.08395 19.5286 7.00567 19.7321 6.84912 19.8964C6.69257 20.0607 6.49858 20.1429 6.26716 20.1429H4.63358ZM17.7022 6.42857V4.71429H16.0686C15.8372 4.71429 15.6432 4.63214 15.4867 4.46786C15.3301 4.30357 15.2518 4.1 15.2518 3.85714C15.2518 3.61429 15.3301 3.41071 15.4867 3.24643C15.6432 3.08214 15.8372 3 16.0686 3H17.7022C18.1514 3 18.536 3.16786 18.8559 3.50357C19.1758 3.83929 19.3358 4.24286 19.3358 4.71429V6.42857C19.3358 6.67143 19.2575 6.875 19.101 7.03929C18.9444 7.20357 18.7504 7.28571 18.519 7.28571C18.2876 7.28571 18.0936 7.20357 17.937 7.03929C17.7805 6.875 17.7022 6.67143 17.7022 6.42857ZM12.3931 9.42857C11.9438 9.42857 11.5593 9.26071 11.2394 8.925C10.9195 8.58929 10.7595 8.18571 10.7595 7.71429C10.7595 7.24286 10.9195 6.83929 11.2394 6.50357C11.5593 6.16786 11.9438 6 12.3931 6C12.8423 6 13.2269 6.16786 13.5468 6.50357C13.8667 6.83929 14.0267 7.24286 14.0267 7.71429C14.0267 8.18571 13.8667 8.58929 13.5468 8.925C13.2269 9.26071 12.8423 9.42857 12.3931 9.42857ZM8.55417 16.7143L9.37096 12.3429L7.90074 12.9429V15C7.90074 15.2429 7.82246 15.4464 7.66591 15.6107C7.50936 15.775 7.31537 15.8571 7.08395 15.8571C6.85252 15.8571 6.65854 15.775 6.50199 15.6107C6.34543 15.4464 6.26716 15.2429 6.26716 15V12.3857C6.26716 12.2143 6.3114 12.0607 6.39989 11.925C6.48837 11.7893 6.60749 11.6857 6.75723 11.6143L9.49348 10.3714C9.96994 10.1571 10.3205 10.0179 10.5451 9.95357C10.7697 9.88929 10.9773 9.85714 11.1679 9.85714C11.4538 9.85714 11.7192 9.93571 11.9643 10.0929C12.2093 10.25 12.4067 10.4571 12.5564 10.7143L13.3732 12.0857C13.523 12.3286 13.6863 12.5536 13.8633 12.7607C14.0403 12.9679 14.2445 13.1571 14.4759 13.3286L13.6387 14.85C13.4073 14.6929 13.186 14.5179 12.975 14.325C12.764 14.1321 12.5701 13.9286 12.3931 13.7143L11.8213 16.7143H8.55417ZM13.6183 21C13.3052 21 13.0703 20.8571 12.9138 20.5714C12.7572 20.2857 12.7538 20 12.9036 19.7143L16.1707 13.7143C16.3477 13.4429 16.5927 13.2929 16.9058 13.2643C17.2189 13.2357 17.4504 13.3857 17.6001 13.7143L20.8673 19.7143C21.0442 20 21.0442 20.2857 20.8673 20.5714C20.6903 20.8571 20.4521 21 20.1526 21H13.6183ZM16.8854 20.1429C16.9943 20.1429 17.0896 20.1 17.1713 20.0143C17.253 19.9286 17.2938 19.8286 17.2938 19.7143C17.2938 19.6 17.253 19.5 17.1713 19.4143C17.0896 19.3286 16.9943 19.2857 16.8854 19.2857C16.7765 19.2857 16.6812 19.3286 16.5995 19.4143C16.5179 19.5 16.477 19.6 16.477 19.7143C16.477 19.8286 16.5179 19.9286 16.5995 20.0143C16.6812 20.1 16.7765 20.1429 16.8854 20.1429ZM16.8854 18.4286C16.9943 18.4286 17.0896 18.3857 17.1713 18.3C17.253 18.2143 17.2938 18.1143 17.2938 18V15.4286C17.2938 15.3143 17.253 15.2143 17.1713 15.1286C17.0896 15.0429 16.9943 15 16.8854 15C16.7765 15 16.6812 15.0429 16.5995 15.1286C16.5179 15.2143 16.477 15.3143 16.477 15.4286V18C16.477 18.1143 16.5179 18.2143 16.5995 18.3C16.6812 18.3857 16.7765 18.4286 16.8854 18.4286Z" fill="white"/>
</g>
</svg>
