<svg width="24" height="24" viewBox="0 0 24 24" fill="none" xmlns="http://www.w3.org/2000/svg">
<mask id="mask0_56_486" style="mask-type:alpha" maskUnits="userSpaceOnUse" x="0" y="0" width="24" height="24">
<rect width="24" height="24" fill="#D9D9D9"/>
</mask>
<g mask="url(#mask0_56_486)">
<path d="M5 21C4.45 21 3.97917 20.814 3.5875 20.4419C3.19583 20.0698 3 19.6225 3 19.1V5.8C3 5.2775 3.19583 4.83021 3.5875 4.45813C3.97917 4.08604 4.45 3.9 5 3.9H9.2C9.41667 3.33 9.77917 2.87083 10.2875 2.5225C10.7958 2.17417 11.3667 2 12 2C12.6333 2 13.2042 2.17417 13.7125 2.5225C14.2208 2.87083 14.5833 3.33 14.8 3.9H19C19.55 3.9 20.0208 4.08604 20.4125 4.45813C20.8042 4.83021 21 5.2775 21 5.8V19.1C21 19.6225 20.8042 20.0698 20.4125 20.4419C20.0208 20.814 19.55 21 19 21H5ZM5 19.1H19V5.8H5V19.1ZM8 17.2H13C13.2833 17.2 13.5208 17.109 13.7125 16.9269C13.9042 16.7448 14 16.5192 14 16.25C14 15.9808 13.9042 15.7552 13.7125 15.5731C13.5208 15.391 13.2833 15.3 13 15.3H8C7.71667 15.3 7.47917 15.391 7.2875 15.5731C7.09583 15.7552 7 15.9808 7 16.25C7 16.5192 7.09583 16.7448 7.2875 16.9269C7.47917 17.109 7.71667 17.2 8 17.2ZM8 13.4H16C16.2833 13.4 16.5208 13.309 16.7125 13.1269C16.9042 12.9448 17 12.7192 17 12.45C17 12.1808 16.9042 11.9552 16.7125 11.7731C16.5208 11.591 16.2833 11.5 16 11.5H8C7.71667 11.5 7.47917 11.591 7.2875 11.7731C7.09583 11.9552 7 12.1808 7 12.45C7 12.7192 7.09583 12.9448 7.2875 13.1269C7.47917 13.309 7.71667 13.4 8 13.4ZM8 9.6H16C16.2833 9.6 16.5208 9.50896 16.7125 9.32688C16.9042 9.14479 17 8.91917 17 8.65C17 8.38083 16.9042 8.15521 16.7125 7.97312C16.5208 7.79104 16.2833 7.7 16 7.7H8C7.71667 7.7 7.47917 7.79104 7.2875 7.97312C7.09583 8.15521 7 8.38083 7 8.65C7 8.91917 7.09583 9.14479 7.2875 9.32688C7.47917 9.50896 7.71667 9.6 8 9.6ZM12.5375 4.88563C12.6792 4.75104 12.75 4.58083 12.75 4.375C12.75 4.16917 12.6792 3.99896 12.5375 3.86437C12.3958 3.72979 12.2167 3.6625 12 3.6625C11.7833 3.6625 11.6042 3.72979 11.4625 3.86437C11.3208 3.99896 11.25 4.16917 11.25 4.375C11.25 4.58083 11.3208 4.75104 11.4625 4.88563C11.6042 5.02021 11.7833 5.0875 12 5.0875C12.2167 5.0875 12.3958 5.02021 12.5375 4.88563Z" fill="white"/>
</g>
</svg>
