<svg width="24" height="24" viewBox="0 0 24 24" fill="none" xmlns="http://www.w3.org/2000/svg">
<mask id="mask0_56_157" style="mask-type:alpha" maskUnits="userSpaceOnUse" x="0" y="0" width="24" height="24">
<rect width="24" height="24" fill="#D9D9D9"/>
</mask>
<g mask="url(#mask0_56_157)">
<path d="M10.995 20.575V14.4L7.09501 18.3C6.91168 18.4833 6.67835 18.575 6.39501 18.575C6.11168 18.575 5.87835 18.4833 5.69501 18.3C5.51168 18.1167 5.42001 17.8833 5.42001 17.6C5.42001 17.3167 5.51168 17.0833 5.69501 16.9L10.595 12L5.69501 7.09999C5.51168 6.91666 5.42001 6.68333 5.42001 6.39999C5.42001 6.11666 5.51168 5.88333 5.69501 5.69999C5.87835 5.51666 6.11168 5.42499 6.39501 5.42499C6.67835 5.42499 6.91168 5.51666 7.09501 5.69999L10.995 9.59999V3.42499C10.995 3.12499 11.095 2.87916 11.295 2.68749C11.495 2.49583 11.7283 2.39999 11.995 2.39999C12.1283 2.39999 12.2533 2.42499 12.37 2.47499C12.4867 2.52499 12.595 2.59999 12.695 2.69999L16.995 6.99999C17.095 7.09999 17.1658 7.20833 17.2075 7.32499C17.2492 7.44166 17.27 7.56666 17.27 7.69999C17.27 7.83333 17.2492 7.95833 17.2075 8.07499C17.1658 8.19166 17.095 8.29999 16.995 8.39999L13.395 12L16.995 15.6C17.095 15.7 17.1658 15.8083 17.2075 15.925C17.2492 16.0417 17.27 16.1667 17.27 16.3C17.27 16.4333 17.2492 16.5583 17.2075 16.675C17.1658 16.7917 17.095 16.9 16.995 17L12.695 21.3C12.595 21.4 12.4867 21.475 12.37 21.525C12.2533 21.575 12.1283 21.6 11.995 21.6C11.7283 21.6 11.495 21.5042 11.295 21.3125C11.095 21.1208 10.995 20.875 10.995 20.575ZM12.995 9.59999L14.895 7.69999L12.995 5.84999V9.59999ZM12.995 18.15L14.895 16.3L12.995 14.4V18.15Z" fill="white"/>
</g>
</svg>
