<svg width="24" height="24" viewBox="0 0 24 24" fill="none" xmlns="http://www.w3.org/2000/svg">
<mask id="mask0_56_302" style="mask-type:alpha" maskUnits="userSpaceOnUse" x="0" y="0" width="24" height="24">
<rect width="24" height="24" fill="#D9D9D9"/>
</mask>
<g mask="url(#mask0_56_302)">
<path d="M9.00173 15.3034C7.33458 15.3034 5.91751 14.7199 4.7505 13.5529C3.5835 12.3859 3 10.9689 3 9.30171C3 8.96829 3.02501 8.63486 3.07502 8.30143C3.12504 7.968 3.21673 7.65124 3.3501 7.35115C3.43346 7.18444 3.53765 7.0594 3.66269 6.97605C3.78773 6.89269 3.92527 6.83434 4.07531 6.80099C4.22535 6.76765 4.37956 6.77182 4.53794 6.8135C4.69632 6.85518 4.8422 6.9427 4.97557 7.07607L7.60132 9.70183L9.40184 7.90131L6.77609 5.27556C6.64271 5.14218 6.55519 4.99631 6.51351 4.83793C6.47183 4.67955 6.46766 4.52534 6.50101 4.3753C6.53435 4.22525 6.5927 4.08771 6.67606 3.96268C6.75941 3.83764 6.88445 3.73345 7.05117 3.65009C7.35125 3.51672 7.66801 3.42502 8.00144 3.37501C8.33487 3.32499 8.6683 3.29999 9.00173 3.29999C10.6689 3.29999 12.0859 3.88349 13.2529 5.05049C14.42 6.21749 15.0035 7.63457 15.0035 9.30171C15.0035 9.68516 14.9701 10.0478 14.9034 10.3895C14.8367 10.7313 14.7367 11.0689 14.6033 11.4023L19.6548 16.4038C20.1383 16.8872 20.38 17.4791 20.38 18.1793C20.38 18.8795 20.1383 19.4713 19.6548 19.9548C19.1713 20.4383 18.5795 20.68 17.8793 20.68C17.1791 20.68 16.5872 20.4299 16.1038 19.9298L11.1023 14.9033C10.7689 15.0367 10.4313 15.1367 10.0895 15.2034C9.74777 15.2701 9.38517 15.3034 9.00173 15.3034Z" fill="white"/>
</g>
</svg>
