<svg width="24" height="24" viewBox="0 0 24 24" fill="none" xmlns="http://www.w3.org/2000/svg">
<mask id="mask0_56_508" style="mask-type:alpha" maskUnits="userSpaceOnUse" x="0" y="0" width="24" height="24">
<rect width="24" height="24" fill="#D9D9D9"/>
</mask>
<g mask="url(#mask0_56_508)">
<path d="M2 21.0001V18.0001C2 17.7834 2.03333 17.5751 2.1 17.3751C2.16667 17.1751 2.26667 16.9834 2.4 16.8001L10.75 5.55006L9.6 4.00006C9.51667 3.88339 9.45833 3.76256 9.425 3.63756C9.39167 3.51256 9.38333 3.38756 9.4 3.26256C9.41667 3.13756 9.45833 3.01672 9.525 2.90006C9.59167 2.78339 9.68333 2.68339 9.8 2.60006C10.0333 2.43339 10.2833 2.36672 10.55 2.40006C10.8167 2.43339 11.0333 2.56672 11.2 2.80006L12 3.87506L12.8 2.80006C12.9667 2.56672 13.1833 2.43339 13.45 2.40006C13.7167 2.36672 13.9667 2.43339 14.2 2.60006C14.4333 2.76672 14.5667 2.98339 14.6 3.25006C14.6333 3.51672 14.5667 3.76672 14.4 4.00006L13.25 5.55006L21.6 16.8001C21.7333 16.9834 21.8333 17.1751 21.9 17.3751C21.9667 17.5751 22 17.7834 22 18.0001V21.0001C22 21.2834 21.9042 21.5209 21.7125 21.7126C21.5208 21.9042 21.2833 22.0001 21 22.0001H3C2.71667 22.0001 2.47917 21.9042 2.2875 21.7126C2.09583 21.5209 2 21.2834 2 21.0001ZM12 7.22506L4 18.0001V20.0001H7L11.175 14.1501C11.375 13.8667 11.65 13.7251 12 13.7251C12.35 13.7251 12.625 13.8667 12.825 14.1501L17 20.0001H20V18.0001L12 7.22506ZM9.45 20.0001H14.55L12 16.4501L9.45 20.0001Z" fill="white"/>
</g>
</svg>
