<svg width="24" height="24" viewBox="0 0 24 24" fill="none" xmlns="http://www.w3.org/2000/svg">
<mask id="mask0_56_175" style="mask-type:alpha" maskUnits="userSpaceOnUse" x="0" y="0" width="24" height="24">
<rect width="24" height="24" fill="#D9D9D9"/>
</mask>
<g mask="url(#mask0_56_175)">
<path d="M17 19H19V5H17V19ZM7 14C7.28333 14 7.52083 13.9042 7.7125 13.7125C7.90417 13.5208 8 13.2833 8 13C8 12.7167 7.90417 12.4792 7.7125 12.2875C7.52083 12.0958 7.28333 12 7 12C6.71667 12 6.47917 12.0958 6.2875 12.2875C6.09583 12.4792 6 12.7167 6 13C6 13.2833 6.09583 13.5208 6.2875 13.7125C6.47917 13.9042 6.71667 14 7 14ZM7 17C7.28333 17 7.52083 16.9042 7.7125 16.7125C7.90417 16.5208 8 16.2833 8 16C8 15.7167 7.90417 15.4792 7.7125 15.2875C7.52083 15.0958 7.28333 15 7 15C6.71667 15 6.47917 15.0958 6.2875 15.2875C6.09583 15.4792 6 15.7167 6 16C6 16.2833 6.09583 16.5208 6.2875 16.7125C6.47917 16.9042 6.71667 17 7 17ZM7 11H13C13.2833 11 13.5208 10.9042 13.7125 10.7125C13.9042 10.5208 14 10.2833 14 10V8C14 7.71667 13.9042 7.47917 13.7125 7.2875C13.5208 7.09583 13.2833 7 13 7H7C6.71667 7 6.47917 7.09583 6.2875 7.2875C6.09583 7.47917 6 7.71667 6 8V10C6 10.2833 6.09583 10.5208 6.2875 10.7125C6.47917 10.9042 6.71667 11 7 11ZM10 14C10.2833 14 10.5208 13.9042 10.7125 13.7125C10.9042 13.5208 11 13.2833 11 13C11 12.7167 10.9042 12.4792 10.7125 12.2875C10.5208 12.0958 10.2833 12 10 12C9.71667 12 9.47917 12.0958 9.2875 12.2875C9.09583 12.4792 9 12.7167 9 13C9 13.2833 9.09583 13.5208 9.2875 13.7125C9.47917 13.9042 9.71667 14 10 14ZM10 17C10.2833 17 10.5208 16.9042 10.7125 16.7125C10.9042 16.5208 11 16.2833 11 16C11 15.7167 10.9042 15.4792 10.7125 15.2875C10.5208 15.0958 10.2833 15 10 15C9.71667 15 9.47917 15.0958 9.2875 15.2875C9.09583 15.4792 9 15.7167 9 16C9 16.2833 9.09583 16.5208 9.2875 16.7125C9.47917 16.9042 9.71667 17 10 17ZM13 14C13.2833 14 13.5208 13.9042 13.7125 13.7125C13.9042 13.5208 14 13.2833 14 13C14 12.7167 13.9042 12.4792 13.7125 12.2875C13.5208 12.0958 13.2833 12 13 12C12.7167 12 12.4792 12.0958 12.2875 12.2875C12.0958 12.4792 12 12.7167 12 13C12 13.2833 12.0958 13.5208 12.2875 13.7125C12.4792 13.9042 12.7167 14 13 14ZM13 17C13.2833 17 13.5208 16.9042 13.7125 16.7125C13.9042 16.5208 14 16.2833 14 16C14 15.7167 13.9042 15.4792 13.7125 15.2875C13.5208 15.0958 13.2833 15 13 15C12.7167 15 12.4792 15.0958 12.2875 15.2875C12.0958 15.4792 12 15.7167 12 16C12 16.2833 12.0958 16.5208 12.2875 16.7125C12.4792 16.9042 12.7167 17 13 17ZM15 18V6H5V18H15ZM17 21C16.6167 21 16.2792 20.9083 15.9875 20.725C15.6958 20.5417 15.4583 20.3 15.275 20H5C4.45 20 3.97917 19.8042 3.5875 19.4125C3.19583 19.0208 3 18.55 3 18V6C3 5.45 3.19583 4.97917 3.5875 4.5875C3.97917 4.19583 4.45 4 5 4H15.275C15.4583 3.7 15.6958 3.45833 15.9875 3.275C16.2792 3.09167 16.6167 3 17 3H19C19.55 3 20.0208 3.19583 20.4125 3.5875C20.8042 3.97917 21 4.45 21 5V19C21 19.55 20.8042 20.0208 20.4125 20.4125C20.0208 20.8042 19.55 21 19 21H17Z" fill="white"/>
</g>
</svg>
