<svg width="24" height="24" viewBox="0 0 24 24" fill="none" xmlns="http://www.w3.org/2000/svg">
<mask id="mask0_56_365" style="mask-type:alpha" maskUnits="userSpaceOnUse" x="0" y="0" width="24" height="24">
<rect width="24" height="24" fill="#D9D9D9"/>
</mask>
<g mask="url(#mask0_56_365)">
<path d="M10.9 14.4L9.275 21.7C9.225 21.9333 9.10417 22.125 8.9125 22.275C8.72083 22.425 8.5 22.5 8.25 22.5C7.91667 22.5 7.65 22.375 7.45 22.125C7.25 21.875 7.18333 21.5917 7.25 21.275L9.8 8.4L8 9.1V11.5C8 11.7833 7.90417 12.0208 7.7125 12.2125C7.52083 12.4042 7.28333 12.5 7 12.5C6.71667 12.5 6.47917 12.4042 6.2875 12.2125C6.09583 12.0208 6 11.7833 6 11.5V8.45C6 8.25 6.05417 8.07083 6.1625 7.9125C6.27083 7.75417 6.41667 7.63333 6.6 7.55L11.05 5.65C11.2833 5.55 11.5292 5.49167 11.7875 5.475C12.0458 5.45833 12.2917 5.49167 12.525 5.575C12.7583 5.65833 12.9792 5.775 13.1875 5.925C13.3958 6.075 13.5667 6.26667 13.7 6.5L14.7 8.1C14.9167 8.43333 15.1708 8.75 15.4625 9.05C15.7542 9.35 16.0833 9.60833 16.45 9.825C16.6833 9.95833 16.9417 10.0792 17.225 10.1875C17.5083 10.2958 17.7917 10.375 18.075 10.425C18.3417 10.475 18.5625 10.5958 18.7375 10.7875C18.9125 10.9792 19 11.2167 19 11.5C19 11.7833 18.9 12.0167 18.7 12.2C18.5 12.3833 18.2583 12.4583 17.975 12.425C17.0417 12.2917 16.2042 12 15.4625 11.55C14.7208 11.1 14.075 10.5583 13.525 9.925L12.9 13L14.7 14.7C14.8 14.8 14.875 14.9125 14.925 15.0375C14.975 15.1625 15 15.2917 15 15.425V21.5C15 21.7833 14.9042 22.0208 14.7125 22.2125C14.5208 22.4042 14.2833 22.5 14 22.5C13.7167 22.5 13.4792 22.4042 13.2875 22.2125C13.0958 22.0208 13 21.7833 13 21.5V16L10.9 14.4ZM13.5 5C12.95 5 12.4792 4.80417 12.0875 4.4125C11.6958 4.02083 11.5 3.55 11.5 3C11.5 2.45 11.6958 1.97917 12.0875 1.5875C12.4792 1.19583 12.95 1 13.5 1C14.05 1 14.5208 1.19583 14.9125 1.5875C15.3042 1.97917 15.5 2.45 15.5 3C15.5 3.55 15.3042 4.02083 14.9125 4.4125C14.5208 4.80417 14.05 5 13.5 5Z" fill="white"/>
</g>
</svg>
