<svg width="24" height="24" viewBox="0 0 24 24" fill="none" xmlns="http://www.w3.org/2000/svg">
<mask id="mask0_56_381" style="mask-type:alpha" maskUnits="userSpaceOnUse" x="0" y="0" width="24" height="24">
<path d="M0 0H24V24H0V0Z" fill="#D9D9D9"/>
</mask>
<g mask="url(#mask0_56_381)">
<path d="M11.0026 20C10.72 20 10.4831 19.9042 10.2919 19.7125C10.1007 19.5208 10.0051 19.2833 10.0051 19V13L4.22002 5.6C3.97066 5.26667 3.93326 4.91667 4.10781 4.55C4.28236 4.18333 4.58575 4 5.01797 4H18.982C19.4143 4 19.7176 4.18333 19.8922 4.55C20.0667 4.91667 20.0293 5.26667 19.78 5.6L13.9949 13V19C13.9949 19.2833 13.8993 19.5208 13.7081 19.7125C13.5169 19.9042 13.28 20 12.9974 20H11.0026ZM12 12.3L16.9373 6H7.06271L12 12.3Z" fill="white"/>
</g>
</svg>
