<svg width="24" height="24" viewBox="0 0 24 24" fill="none" xmlns="http://www.w3.org/2000/svg">
<mask id="mask0_56_387" style="mask-type:alpha" maskUnits="userSpaceOnUse" x="0" y="0" width="24" height="24">
<rect width="24" height="24" fill="#D9D9D9"/>
</mask>
<g mask="url(#mask0_56_387)">
<path d="M12 16.5C12.2833 16.5 12.5208 16.4042 12.7125 16.2125C12.9042 16.0208 13 15.7833 13 15.5C13 15.2167 12.9042 14.9792 12.7125 14.7875C12.5208 14.5958 12.2833 14.5 12 14.5C11.7167 14.5 11.4792 14.5958 11.2875 14.7875C11.0958 14.9792 11 15.2167 11 15.5C11 15.7833 11.0958 16.0208 11.2875 16.2125C11.4792 16.4042 11.7167 16.5 12 16.5ZM12 14.0567C12.2833 14.0567 12.5208 13.9609 12.7125 13.7692C12.9042 13.5776 12.8889 13.3401 12.8889 13.0567C12.8889 12.7734 12.9042 7.97917 12.7125 7.7875C12.5208 7.59583 12.2833 7.5 12 7.5C11.7167 7.5 11.4792 7.59583 11.2875 7.7875C11.0958 7.97917 11.1111 12.7734 11.1111 13.0567C11.1111 13.3401 11.0958 13.5776 11.2875 13.7692C11.4792 13.9609 11.7167 14.0567 12 14.0567ZM6 20.5C5.45 20.5 4.97917 20.3042 4.5875 19.9125C4.19583 19.5208 4 19.05 4 18.5V9.5C4 9.18333 4.07083 8.88333 4.2125 8.6C4.35417 8.31667 4.55 8.08333 4.8 7.9L10.8 3.4C11.15 3.13333 11.55 3 12 3C12.45 3 12.85 3.13333 13.2 3.4L19.2 7.9C19.45 8.08333 19.6458 8.31667 19.7875 8.6C19.9292 8.88333 20 9.18333 20 9.5V18.5C20 19.05 19.8042 19.5208 19.4125 19.9125C19.0208 20.3042 18.55 20.5 18 20.5H6ZM6 18.5H18V9.5L12 5L6 9.5V18.5Z" fill="white"/>
</g>
</svg>
