<svg width="24" height="24" viewBox="0 0 24 24" fill="none" xmlns="http://www.w3.org/2000/svg">
<mask id="mask0_56_362" style="mask-type:alpha" maskUnits="userSpaceOnUse" x="0" y="0" width="24" height="24">
<rect width="24" height="24" fill="#D9D9D9"/>
</mask>
<g mask="url(#mask0_56_362)">
<path d="M11.95 21.95C11.3667 21.95 10.7875 21.9042 10.2125 21.8125C9.6375 21.7208 9.08333 21.5667 8.55 21.35C8.35 21.2833 8.1875 21.1667 8.0625 21C7.9375 20.8333 7.875 20.6333 7.875 20.4C7.875 20.1167 7.97083 19.8792 8.1625 19.6875C8.35417 19.4958 8.59167 19.4 8.875 19.4L9.225 19.45C9.675 19.6 10.1208 19.7208 10.5625 19.8125C11.0042 19.9042 11.4667 19.95 11.95 19.95C12.2333 19.95 12.4708 20.0458 12.6625 20.2375C12.8542 20.4292 12.95 20.6667 12.95 20.95C12.95 21.2333 12.8542 21.4708 12.6625 21.6625C12.4708 21.8542 12.2333 21.95 11.95 21.95ZM15.95 20.95C15.6667 20.95 15.4292 20.8542 15.2375 20.6625C15.0458 20.4708 14.95 20.2333 14.95 19.95V15.95C14.95 15.6667 15.0458 15.4292 15.2375 15.2375C15.4292 15.0458 15.6667 14.95 15.95 14.95H19.95C20.2333 14.95 20.4708 15.0458 20.6625 15.2375C20.8542 15.4292 20.95 15.6667 20.95 15.95C20.95 16.2333 20.8542 16.4708 20.6625 16.6625C20.4708 16.8542 20.2333 16.95 19.95 16.95H18.35L20.45 19.05C20.6333 19.2333 20.7292 19.4625 20.7375 19.7375C20.7458 20.0125 20.65 20.25 20.45 20.45C20.2667 20.6333 20.0333 20.725 19.75 20.725C19.4667 20.725 19.2333 20.6333 19.05 20.45L16.95 18.35V19.95C16.95 20.2333 16.8542 20.4708 16.6625 20.6625C16.4708 20.8542 16.2333 20.95 15.95 20.95ZM5.6 19.3C5.46667 19.3 5.3375 19.2708 5.2125 19.2125C5.0875 19.1542 4.98333 19.0833 4.9 19C4.35 18.4667 3.875 17.8833 3.475 17.25C3.075 16.6167 2.75 15.9417 2.5 15.225C2.46667 15.1583 2.45 15.0417 2.45 14.875C2.45 14.5917 2.54583 14.3542 2.7375 14.1625C2.92917 13.9708 3.16667 13.875 3.45 13.875C3.68333 13.875 3.88333 13.9417 4.05 14.075C4.21667 14.2083 4.33333 14.375 4.4 14.575C4.6 15.1583 4.85833 15.7 5.175 16.2C5.49167 16.7 5.86667 17.1667 6.3 17.6C6.38333 17.6833 6.45417 17.7875 6.5125 17.9125C6.57083 18.0375 6.6 18.1667 6.6 18.3C6.6 18.5833 6.50417 18.8208 6.3125 19.0125C6.12083 19.2042 5.88333 19.3 5.6 19.3ZM20.95 12.95C20.6667 12.95 20.4292 12.8542 20.2375 12.6625C20.0458 12.4708 19.95 12.2333 19.95 11.95C19.95 11.4667 19.9042 11.0042 19.8125 10.5625C19.7208 10.1208 19.6 9.675 19.45 9.225C19.4167 9.15833 19.4 9.04167 19.4 8.875C19.4 8.59167 19.4958 8.35417 19.6875 8.1625C19.8792 7.97083 20.1167 7.875 20.4 7.875C20.6333 7.875 20.8333 7.9375 21 8.0625C21.1667 8.1875 21.2833 8.35 21.35 8.55C21.5667 9.08333 21.7208 9.6375 21.8125 10.2125C21.9042 10.7875 21.95 11.3667 21.95 11.95C21.95 12.2333 21.8542 12.4708 21.6625 12.6625C21.4708 12.8542 21.2333 12.95 20.95 12.95ZM3 12C2.71667 12 2.47917 11.9042 2.2875 11.7125C2.09583 11.5208 2 11.2833 2 11V10.825C2.1 10.075 2.275 9.34167 2.525 8.625C2.775 7.90833 3.1 7.23333 3.5 6.6C3.58333 6.46667 3.7 6.35417 3.85 6.2625C4 6.17083 4.16667 6.125 4.35 6.125C4.63333 6.125 4.87083 6.22083 5.0625 6.4125C5.25417 6.60417 5.35 6.84167 5.35 7.125C5.35 7.225 5.33333 7.325 5.3 7.425C5.26667 7.525 5.225 7.61667 5.175 7.7C4.84167 8.21667 4.58333 8.7625 4.4 9.3375C4.21667 9.9125 4.08333 10.5 4 11.1C3.96667 11.35 3.85833 11.5625 3.675 11.7375C3.49167 11.9125 3.26667 12 3 12ZM18.3 6.6C18.1667 6.6 18.0375 6.57083 17.9125 6.5125C17.7875 6.45417 17.6833 6.38333 17.6 6.3C17.1667 5.86667 16.7 5.49167 16.2 5.175C15.7 4.85833 15.1583 4.6 14.575 4.4C14.375 4.33333 14.2083 4.21667 14.075 4.05C13.9417 3.88333 13.875 3.68333 13.875 3.45C13.875 3.16667 13.9708 2.92917 14.1625 2.7375C14.3542 2.54583 14.5917 2.45 14.875 2.45L15.225 2.5C15.9417 2.75 16.6167 3.075 17.25 3.475C17.8833 3.875 18.4667 4.35 19 4.9C19.0833 4.98333 19.1542 5.0875 19.2125 5.2125C19.2708 5.3375 19.3 5.46667 19.3 5.6C19.3 5.88333 19.2042 6.12083 19.0125 6.3125C18.8208 6.50417 18.5833 6.6 18.3 6.6ZM7.125 5.35C6.84167 5.35 6.60417 5.25417 6.4125 5.0625C6.22083 4.87083 6.125 4.63333 6.125 4.35C6.125 4.16667 6.17083 4 6.2625 3.85C6.35417 3.7 6.46667 3.58333 6.6 3.5C7.23333 3.1 7.90833 2.775 8.625 2.525C9.34167 2.275 10.075 2.1 10.825 2H11C11.2833 2 11.5208 2.09583 11.7125 2.2875C11.9042 2.47917 12 2.71667 12 3C12 3.26667 11.9125 3.49167 11.7375 3.675C11.5625 3.85833 11.35 3.96667 11.1 4C10.5 4.08333 9.9125 4.21667 9.3375 4.4C8.7625 4.58333 8.21667 4.84167 7.7 5.175C7.61667 5.225 7.525 5.26667 7.425 5.3C7.325 5.33333 7.225 5.35 7.125 5.35Z" fill="white"/>
</g>
</svg>
