<svg width="24" height="24" viewBox="0 0 24 24" fill="none" xmlns="http://www.w3.org/2000/svg">
<mask id="mask0_56_234" style="mask-type:alpha" maskUnits="userSpaceOnUse" x="0" y="0" width="24" height="24">
<rect width="24" height="24" fill="#D9D9D9"/>
</mask>
<g mask="url(#mask0_56_234)">
<path d="M7.5 8H13.5V6C13.5 5.16667 13.2083 4.45833 12.625 3.875C12.0417 3.29167 11.3333 3 10.5 3C9.66667 3 8.95833 3.29167 8.375 3.875C7.79167 4.45833 7.5 5.16667 7.5 6V8ZM4.5 22C3.95 22 3.47917 21.8042 3.0875 21.4125C2.69583 21.0208 2.5 20.55 2.5 20V10C2.5 9.45 2.69583 8.97917 3.0875 8.5875C3.47917 8.19583 3.95 8 4.5 8H5.5V6C5.5 4.61667 5.9875 3.4375 6.9625 2.4625C7.9375 1.4875 9.11667 1 10.5 1C11.8833 1 13.0625 1.4875 14.0375 2.4625C15.0125 3.4375 15.5 4.61667 15.5 6V8H16.5C17.05 8 17.5208 8.19583 17.9125 8.5875C18.3042 8.97917 18.5 9.45 18.5 10V10.15C18.5 10.4333 18.3875 10.6667 18.1625 10.85C17.9375 11.0333 17.675 11.1 17.375 11.05C17.2417 11.0333 17.1 11.0208 16.95 11.0125C16.8 11.0042 16.65 11 16.5 11C14.55 11 12.8958 11.6792 11.5375 13.0375C10.1792 14.3958 9.5 16.05 9.5 18C9.5 18.4833 9.55417 18.9625 9.6625 19.4375C9.77083 19.9125 9.91667 20.3667 10.1 20.8C10.2333 21.0833 10.2208 21.3542 10.0625 21.6125C9.90417 21.8708 9.68333 22 9.4 22H4.5ZM16.5 23C15.1167 23 13.9375 22.5125 12.9625 21.5375C11.9875 20.5625 11.5 19.3833 11.5 18C11.5 16.6167 11.9875 15.4375 12.9625 14.4625C13.9375 13.4875 15.1167 13 16.5 13C17.8833 13 19.0625 13.4875 20.0375 14.4625C21.0125 15.4375 21.5 16.6167 21.5 18C21.5 19.3833 21.0125 20.5625 20.0375 21.5375C19.0625 22.5125 17.8833 23 16.5 23ZM17 17.8V15.5C17 15.3667 16.95 15.25 16.85 15.15C16.75 15.05 16.6333 15 16.5 15C16.3667 15 16.25 15.05 16.15 15.15C16.05 15.25 16 15.3667 16 15.5V17.775C16 17.9083 16.025 18.0375 16.075 18.1625C16.125 18.2875 16.2 18.4 16.3 18.5L17.8 20C17.9 20.1 18.0167 20.15 18.15 20.15C18.2833 20.15 18.4 20.1 18.5 20C18.6 19.9 18.65 19.7833 18.65 19.65C18.65 19.5167 18.6 19.4 18.5 19.3L17 17.8Z" fill="white"/>
</g>
</svg>
