<svg width="24" height="24" viewBox="0 0 24 24" fill="none" xmlns="http://www.w3.org/2000/svg">
<mask id="mask0_56_160" style="mask-type:alpha" maskUnits="userSpaceOnUse" x="0" y="0" width="24" height="24">
<rect width="24" height="24" fill="#D9D9D9"/>
</mask>
<g mask="url(#mask0_56_160)">
<path d="M10.0987 13.2513L3.62489 10.6268C3.40826 10.5434 3.24995 10.4143 3.14997 10.2393C3.04999 10.0644 3 9.88522 3 9.70192C3 9.51862 3.05416 9.33948 3.16247 9.16452C3.27078 8.98955 3.43326 8.8604 3.64988 8.77708L18.9971 3.07811C19.1971 2.99479 19.3887 2.97813 19.572 3.02812C19.7553 3.07811 19.9136 3.16976 20.0469 3.30307C20.1802 3.43638 20.2719 3.59468 20.3219 3.77798C20.3719 3.96129 20.3552 4.15292 20.2719 4.35288L14.5729 19.7001C14.4896 19.9167 14.3605 20.0792 14.1855 20.1875C14.0105 20.2958 13.8314 20.35 13.6481 20.35C13.4648 20.35 13.2856 20.3 13.1107 20.2C12.9357 20.1 12.8066 19.9417 12.7232 19.7251L10.0987 13.2513ZM13.5981 16.6007L17.6474 5.70264L6.74932 9.75191L11.6484 11.7016L13.5981 16.6007Z" fill="white"/>
</g>
</svg>
