<svg width="24" height="24" viewBox="0 0 24 24" fill="none" xmlns="http://www.w3.org/2000/svg">
<mask id="mask0_56_418" style="mask-type:alpha" maskUnits="userSpaceOnUse" x="0" y="0" width="24" height="24">
<rect width="24" height="24" fill="#D9D9D9"/>
</mask>
<g mask="url(#mask0_56_418)">
<path d="M21 18C20.7167 18 20.4792 17.9042 20.2875 17.7125C20.0958 17.5208 20 17.2833 20 17V11C20 10.7167 20.0958 10.4792 20.2875 10.2875C20.4792 10.0958 20.7167 10 21 10C21.2833 10 21.5208 10.0958 21.7125 10.2875C21.9042 10.4792 22 10.7167 22 11V17C22 17.2833 21.9042 17.5208 21.7125 17.7125C21.5208 17.9042 21.2833 18 21 18ZM21 22C20.7167 22 20.4792 21.9042 20.2875 21.7125C20.0958 21.5208 20 21.2833 20 21C20 20.7167 20.0958 20.4792 20.2875 20.2875C20.4792 20.0958 20.7167 20 21 20C21.2833 20 21.5208 20.0958 21.7125 20.2875C21.9042 20.4792 22 20.7167 22 21C22 21.2833 21.9042 21.5208 21.7125 21.7125C21.5208 21.9042 21.2833 22 21 22ZM12 22C10.6167 22 9.31667 21.7375 8.1 21.2125C6.88333 20.6875 5.825 19.975 4.925 19.075C4.025 18.175 3.3125 17.1167 2.7875 15.9C2.2625 14.6833 2 13.3833 2 12C2 10.6167 2.2625 9.31667 2.7875 8.1C3.3125 6.88333 4.025 5.825 4.925 4.925C5.825 4.025 6.88333 3.3125 8.1 2.7875C9.31667 2.2625 10.6167 2 12 2C13.25 2 14.4792 2.23333 15.6875 2.7C16.8958 3.16667 17.95 3.85 18.85 4.75C19.05 4.95 19.15 5.18333 19.15 5.45C19.15 5.71667 19.05 5.95 18.85 6.15L13.7 11.3C13.3833 11.6167 13.0208 11.6875 12.6125 11.5125C12.2042 11.3375 12 11.025 12 10.575V4C9.76667 4 7.875 4.775 6.325 6.325C4.775 7.875 4 9.76667 4 12C4 14.2333 4.775 16.125 6.325 17.675C7.875 19.225 9.76667 20 12 20C12.9 20 13.7667 19.8458 14.6 19.5375C15.4333 19.2292 16.2 18.8083 16.9 18.275C17.1333 18.0917 17.3833 18.025 17.65 18.075C17.9167 18.125 18.1333 18.2667 18.3 18.5C18.4667 18.7333 18.5292 18.9875 18.4875 19.2625C18.4458 19.5375 18.3083 19.7583 18.075 19.925C17.175 20.5917 16.2125 21.1042 15.1875 21.4625C14.1625 21.8208 13.1 22 12 22Z" fill="white"/>
</g>
</svg>
