<svg width="24" height="24" viewBox="0 0 24 24" fill="none" xmlns="http://www.w3.org/2000/svg">
<mask id="mask0_56_109" style="mask-type:alpha" maskUnits="userSpaceOnUse" x="0" y="0" width="24" height="24">
<rect x="0.5" y="0.5" width="23" height="23" fill="#D9D9D9" stroke="#9CAFB2"/>
</mask>
<g mask="url(#mask0_56_109)">
<path d="M19.9873 5.1207V11.1363C19.9873 13.6352 19.2342 15.9078 17.7275 17.9547C16.2215 20.0007 14.3123 21.3116 12 21.8873C9.68769 21.3116 7.77854 20.0007 6.27246 17.9547C4.7658 15.9078 4.01271 13.6352 4.0127 11.1363V5.1207L12 2.16269L19.9873 5.1207ZM11.9961 4.23691L5.99609 6.45859L5.9873 6.46152V11.5807C5.98731 11.6969 6.00472 11.8457 6.03809 12.0269L6.04004 12.0377H11.9873V19.8434L12.0039 19.8385C13.6232 19.3439 14.9748 18.3663 16.0596 16.9078C17.1442 15.4495 17.7793 13.8222 17.9629 12.026L17.9639 12.0123H12.0127V4.23007L11.9961 4.23691Z" fill="white" stroke="white" stroke-width="0.025"/>
</g>
</svg>
