<svg width="24" height="24" viewBox="0 0 24 24" fill="none" xmlns="http://www.w3.org/2000/svg">
<mask id="mask0_56_399" style="mask-type:alpha" maskUnits="userSpaceOnUse" x="0" y="0" width="24" height="24">
<rect width="24" height="24" fill="#D9D9D9"/>
</mask>
<g mask="url(#mask0_56_399)">
<path d="M14.02 23C13.6033 23 13.2492 22.8542 12.9575 22.5625C12.6658 22.2708 12.52 21.9167 12.52 21.5V14.5C12.52 14.0833 12.6658 13.7292 12.9575 13.4375C13.2492 13.1458 13.6033 13 14.02 13H21.02C21.4367 13 21.7908 13.1458 22.0825 13.4375C22.3742 13.7292 22.52 14.0833 22.52 14.5V21.5C22.52 21.9167 22.3742 22.2708 22.0825 22.5625C21.7908 22.8542 21.4367 23 21.02 23H14.02ZM10.52 17.425V22H10.095C9.645 22 9.29917 21.85 9.0575 21.55C8.81583 21.25 8.66167 20.8833 8.595 20.45L8.37 18.8C8.15333 18.7167 7.94917 18.6167 7.7575 18.5C7.56583 18.3833 7.37833 18.2583 7.195 18.125L5.645 18.775C5.22833 18.9583 4.81167 18.975 4.395 18.825C3.97833 18.675 3.65333 18.4083 3.42 18.025L2.245 15.975C2.01167 15.5917 1.945 15.1833 2.045 14.75C2.145 14.3167 2.37 13.9583 2.72 13.675L4.045 12.675C4.02833 12.5583 4.02 12.4458 4.02 12.3375V11.6625C4.02 11.5542 4.02833 11.4417 4.045 11.325L2.72 10.325C2.37 10.0417 2.145 9.68333 2.045 9.25C1.945 8.81667 2.01167 8.40833 2.245 8.025L3.42 5.975C3.65333 5.59167 3.97833 5.325 4.395 5.175C4.81167 5.025 5.22833 5.04167 5.645 5.225L7.195 5.875C7.37833 5.74167 7.57 5.61667 7.77 5.5C7.97 5.38333 8.17 5.28333 8.37 5.2L8.595 3.55C8.66167 3.11667 8.8575 2.75 9.1825 2.45C9.5075 2.15 9.895 2 10.345 2H12.695C13.145 2 13.5325 2.15 13.8575 2.45C14.1825 2.75 14.3783 3.11667 14.445 3.55L14.67 5.2C14.8867 5.28333 15.0908 5.38333 15.2825 5.5C15.4742 5.61667 15.6617 5.74167 15.845 5.875L17.395 5.225C17.8117 5.04167 18.2283 5.025 18.645 5.175C19.0617 5.325 19.3867 5.59167 19.62 5.975L20.795 8.025C21.0283 8.40833 21.095 8.82083 20.995 9.2625C20.895 9.70417 20.67 10.0583 20.32 10.325L19.72 10.775C19.4867 10.9417 19.2408 11.0083 18.9825 10.975C18.7242 10.9417 18.5033 10.8167 18.32 10.6C18.1367 10.3833 18.0617 10.1417 18.095 9.875C18.1283 9.60833 18.2533 9.38333 18.47 9.2L18.945 8.85L17.97 7.15L15.495 8.2C15.1283 7.81667 14.7242 7.49583 14.2825 7.2375C13.8408 6.97917 13.3617 6.78333 12.845 6.65L12.52 4H10.545L10.195 6.65C9.67833 6.78333 9.19917 6.97917 8.7575 7.2375C8.31583 7.49583 7.91167 7.80833 7.545 8.175L5.07 7.15L4.095 8.85L6.245 10.45C6.16167 10.7 6.10333 10.95 6.07 11.2C6.03667 11.45 6.02 11.7167 6.02 12C6.02 12.2667 6.03667 12.525 6.07 12.775C6.10333 13.025 6.16167 13.275 6.245 13.525L4.095 15.15L5.07 16.85L7.545 15.8C7.945 16.2167 8.39917 16.5625 8.9075 16.8375C9.41583 17.1125 9.95333 17.3083 10.52 17.425ZM11.57 8.5C10.6033 8.5 9.77833 8.8375 9.095 9.5125C8.41167 10.1875 8.07 11.0167 8.07 12C8.07 12.35 8.12 12.6917 8.22 13.025C8.32 13.3583 8.47 13.675 8.67 13.975C8.85333 14.225 9.09083 14.3833 9.3825 14.45C9.67417 14.5167 9.93667 14.4583 10.17 14.275C10.4033 14.1083 10.5408 13.8875 10.5825 13.6125C10.6242 13.3375 10.5533 13.1 10.37 12.9C10.27 12.7667 10.195 12.6292 10.145 12.4875C10.095 12.3458 10.07 12.1833 10.07 12C10.07 11.5833 10.2158 11.2292 10.5075 10.9375C10.7992 10.6458 11.1533 10.5 11.57 10.5C11.7367 10.5 11.8992 10.5292 12.0575 10.5875C12.2158 10.6458 12.3617 10.725 12.495 10.825C12.695 10.975 12.92 11.0292 13.17 10.9875C13.42 10.9458 13.6283 10.8083 13.795 10.575C13.9617 10.3417 14.0158 10.0833 13.9575 9.8C13.8992 9.51667 13.7533 9.28333 13.52 9.1C13.2867 8.9 13.0033 8.75 12.67 8.65C12.3367 8.55 11.97 8.5 11.57 8.5ZM17.52 19C17.1033 19 16.695 19.0542 16.295 19.1625C15.895 19.2708 15.52 19.4417 15.17 19.675C14.9533 19.8083 14.7908 19.95 14.6825 20.1C14.5742 20.25 14.52 20.4083 14.52 20.575C14.52 20.6917 14.5617 20.7917 14.645 20.875C14.7283 20.9583 14.8283 21 14.945 21H20.195C20.2783 21 20.3533 20.9583 20.42 20.875C20.4867 20.7917 20.52 20.6917 20.52 20.575C20.52 20.4083 20.4658 20.25 20.3575 20.1C20.2492 19.95 20.0867 19.8083 19.87 19.675C19.52 19.4417 19.145 19.2708 18.745 19.1625C18.345 19.0542 17.9367 19 17.52 19ZM17.52 18C17.9367 18 18.2908 17.8542 18.5825 17.5625C18.8742 17.2708 19.02 16.9167 19.02 16.5C19.02 16.0833 18.8742 15.7292 18.5825 15.4375C18.2908 15.1458 17.9367 15 17.52 15C17.1033 15 16.7492 15.1458 16.4575 15.4375C16.1658 15.7292 16.02 16.0833 16.02 16.5C16.02 16.9167 16.1658 17.2708 16.4575 17.5625C16.7492 17.8542 17.1033 18 17.52 18Z" fill="white"/>
</g>
</svg>
