<svg width="24" height="24" viewBox="0 0 24 24" fill="none" xmlns="http://www.w3.org/2000/svg">
<mask id="mask0_56_191" style="mask-type:alpha" maskUnits="userSpaceOnUse" x="0" y="0" width="24" height="24">
<rect width="24" height="24" fill="#D9D9D9"/>
</mask>
<g mask="url(#mask0_56_191)">
<path d="M7 22C6.45 22 5.97917 21.8042 5.5875 21.4125C5.19583 21.0208 5 20.55 5 20V18C5 17.45 5.19583 16.9792 5.5875 16.5875C5.97917 16.1958 6.45 16 7 16V11C6.45 11 5.97917 10.8042 5.5875 10.4125C5.19583 10.0208 5 9.55 5 9V7C5 6.45 5.19583 5.97917 5.5875 5.5875C5.97917 5.19583 6.45 5 7 5H10V4C9.71667 4 9.47917 3.90417 9.2875 3.7125C9.09583 3.52083 9 3.28333 9 3C9 2.71667 9.09583 2.47917 9.2875 2.2875C9.47917 2.09583 9.71667 2 10 2H14C14.2833 2 14.5208 2.09583 14.7125 2.2875C14.9042 2.47917 15 2.71667 15 3C15 3.28333 14.9042 3.52083 14.7125 3.7125C14.5208 3.90417 14.2833 4 14 4V5H17C17.55 5 18.0208 5.19583 18.4125 5.5875C18.8042 5.97917 19 6.45 19 7V9C19 9.55 18.8042 10.0208 18.4125 10.4125C18.0208 10.8042 17.55 11 17 11V16C17.55 16 18.0208 16.1958 18.4125 16.5875C18.8042 16.9792 19 17.45 19 18V20C19 20.55 18.8042 21.0208 18.4125 21.4125C18.0208 21.8042 17.55 22 17 22H7ZM7 20H17V18H15V11H14C13.7167 11 13.4792 10.9042 13.2875 10.7125C13.0958 10.5208 13 10.2833 13 10C13 9.71667 13.0958 9.47917 13.2875 9.2875C13.4792 9.09583 13.7167 9 14 9H17V7H7V9H9V16H10C10.2833 16 10.5208 16.0958 10.7125 16.2875C10.9042 16.4792 11 16.7167 11 17C11 17.2833 10.9042 17.5208 10.7125 17.7125C10.5208 17.9042 10.2833 18 10 18H7V20Z" fill="white"/>
</g>
</svg>
