<svg width="24" height="24" viewBox="0 0 24 24" fill="none" xmlns="http://www.w3.org/2000/svg">
<mask id="mask0_56_356" style="mask-type:alpha" maskUnits="userSpaceOnUse" x="0" y="0" width="24" height="24">
<rect width="24" height="24" fill="#D9D9D9"/>
</mask>
<g mask="url(#mask0_56_356)">
<path d="M19.2 3H4.8C3.81 3 3 3.81457 3 4.80457V19.2C3 20.19 3.81 21 4.8 21H19.2C20.19 21 21 20.19 21 19.2V4.80457C21 3.81457 20.19 3 19.2 3ZM19.2 19.2H4.8V4.80457H19.2V19.2Z" fill="white"/>
<path d="M12.0222 15.913C11.0305 15.913 10.1869 15.534 9.49121 14.7758C8.79556 14.0177 8.44773 13.0924 8.44773 12V11.9144L8.0481 12.3546C7.9667 12.4443 7.86309 12.4891 7.73728 12.4891C7.61147 12.4891 7.50786 12.4443 7.42646 12.3546C7.34505 12.2649 7.30435 12.1508 7.30435 12.0122C7.30435 11.8736 7.34505 11.7595 7.42646 11.6698L8.58094 10.3981C8.66975 10.3003 8.77336 10.2514 8.89177 10.2514C9.01018 10.2514 9.11378 10.3003 9.20259 10.3981L10.3571 11.6698C10.4385 11.7595 10.4792 11.8736 10.4792 12.0122C10.4792 12.1508 10.4385 12.2649 10.3571 12.3546C10.2757 12.4443 10.1721 12.4891 10.0463 12.4891C9.92044 12.4891 9.81684 12.4443 9.73543 12.3546L9.3358 11.9144V12C9.3358 12.8152 9.59667 13.5082 10.1184 14.0788C10.6401 14.6495 11.2747 14.9348 12.0222 14.9348C12.1406 14.9348 12.2572 14.9266 12.3719 14.9103C12.4866 14.894 12.5994 14.8655 12.7105 14.8247C12.8363 14.784 12.9547 14.788 13.0657 14.837C13.1767 14.8859 13.2618 14.9715 13.321 15.0937C13.3802 15.2242 13.3858 15.3526 13.3377 15.4789C13.2895 15.6053 13.2026 15.6889 13.0768 15.7296C12.9066 15.7948 12.7327 15.8417 12.555 15.8702C12.3774 15.8988 12.1998 15.913 12.0222 15.913ZM11.9778 9.06522C11.8594 9.06522 11.7428 9.07337 11.6281 9.08967C11.5134 9.10598 11.4006 9.13451 11.2895 9.17527C11.1637 9.21603 11.0435 9.21196 10.9288 9.16304C10.8141 9.11413 10.7271 9.02853 10.6679 8.90625C10.6087 8.78397 10.6031 8.65965 10.6512 8.53329C10.6994 8.40693 10.7826 8.32337 10.901 8.28261C11.0786 8.21739 11.2562 8.16848 11.4339 8.13587C11.6115 8.10326 11.7928 8.08696 11.9778 8.08696C12.9695 8.08696 13.8131 8.46603 14.5088 9.22418C15.2044 9.98234 15.5523 10.9076 15.5523 12V12.0856L15.9519 11.6454C16.0333 11.5557 16.1369 11.5109 16.2627 11.5109C16.3885 11.5109 16.4921 11.5557 16.5735 11.6454C16.6549 11.7351 16.6957 11.8492 16.6957 11.9878C16.6957 12.1264 16.6549 12.2405 16.5735 12.3302L15.4191 13.6019C15.3302 13.6997 15.2266 13.7486 15.1082 13.7486C14.9898 13.7486 14.8862 13.6997 14.7974 13.6019L13.6429 12.3302C13.5615 12.2405 13.5208 12.1264 13.5208 11.9878C13.5208 11.8492 13.5615 11.7351 13.6429 11.6454C13.7243 11.5557 13.8279 11.5109 13.9537 11.5109C14.0796 11.5109 14.1832 11.5557 14.2646 11.6454L14.6642 12.0856V12C14.6642 11.1848 14.4033 10.4918 13.8816 9.9212C13.3599 9.35054 12.7253 9.06522 11.9778 9.06522Z" fill="white"/>
</g>
</svg>
