<svg width="24" height="24" viewBox="0 0 24 24" fill="none" xmlns="http://www.w3.org/2000/svg">
<g clip-path="url(#clip0_56_324)">
<mask id="mask0_56_324" style="mask-type:alpha" maskUnits="userSpaceOnUse" x="0" y="0" width="24" height="24">
<rect width="24" height="24" fill="#D9D9D9"/>
</mask>
<g mask="url(#mask0_56_324)">
<path d="M17 19.15V22H15V19.15C15 18.105 14.1 17.25 13 17.25H10C7.2 17.25 5 15.16 5 12.5C5 11.36 5.4 10.41 6.1 9.555C3.8 9.175 2 7.18 2 4.9C2 4.235 2.2 3.57 2.4 3H4.8C4.3 3.475 4 4.14 4 4.9C4 6.515 5.3 7.75 7 7.75H10V9.65C8.3 9.65 7 10.885 7 12.5C7 14.115 8.3 15.35 10 15.35H13C15.2 15.35 17 17.06 17 19.15ZM17.9 9.555C20.2 9.175 22 7.18 22 4.9C22 4.235 21.8 3.57 21.6 3H19.2C19.7 3.475 20 4.14 20 4.9C20 6.515 18.7 7.75 17 7.75H15.8C15.9 8.035 16 8.32 16 8.7C16 10.315 14.7 11.55 13 11.55V13.45C15.8 13.45 18 15.54 18 18.2V22H20V18.2C20 15.635 18.5 13.45 16.2 12.31C17.1 11.645 17.7 10.695 17.9 9.555Z" fill="white"/>
</g>
</g>
<defs>
<clipPath id="clip0_56_324">
<rect width="24" height="24" fill="white"/>
</clipPath>
</defs>
</svg>
