<svg width="24" height="24" viewBox="0 0 24 24" fill="none" xmlns="http://www.w3.org/2000/svg">
<path d="M14.6565 4.99194L9.6537 3.24367C9.23346 3.09382 8.77321 3.09382 8.35297 3.23368L4.36076 4.57235C3.55031 4.85208 3 5.61132 3 6.47047V18.3088C3 19.7174 4.41078 20.6764 5.72151 20.1669L8.65314 19.028C8.87326 18.9381 9.1234 18.9381 9.34352 19.0181L14.3463 20.7663C14.7665 20.9162 15.2268 20.9162 15.647 20.7763L19.6392 19.4376C20.4497 19.1679 21 18.3987 21 17.5395V5.70124C21 4.29263 19.5892 3.33358 18.2785 3.84307L15.3469 4.98195C15.1267 5.06187 14.8866 5.07186 14.6565 4.99194ZM15.0067 18.8882L9.00333 16.7803V5.12181L15.0067 7.22972V18.8882Z" fill="currentColor"/>
</svg>
