<svg width="24" height="24" viewBox="0 0 24 24" fill="none" xmlns="http://www.w3.org/2000/svg">
<path d="M12.005 4C7.13 4 2.96675 7.11 1.28 11.5C2.96675 15.89 7.13 19 12.005 19C16.88 19 21.0432 15.89 22.73 11.5C21.0432 7.11 16.88 4 12.005 4ZM12.005 16.5C9.314 16.5 7.13 14.26 7.13 11.5C7.13 8.74 9.314 6.5 12.005 6.5C14.696 6.5 16.88 8.74 16.88 11.5C16.88 14.26 14.696 16.5 12.005 16.5ZM12.005 8.5C10.3865 8.5 9.08 9.84 9.08 11.5C9.08 13.16 10.3865 14.5 12.005 14.5C13.6235 14.5 14.93 13.16 14.93 11.5C14.93 9.84 13.6235 8.5 12.005 8.5Z" fill="currentColor"/>
</svg>
