<svg width="48" height="48" viewBox="0 0 48 48" fill="none" xmlns="http://www.w3.org/2000/svg">
<rect width="48" height="48" rx="4" fill="#161D20"/>
<path d="M29.65 18.35C28.2 16.9 26.21 16 24 16C21.8783 16 19.8434 16.8429 18.3431 18.3431C16.8429 19.8434 16 21.8783 16 24C16 26.1217 16.8429 28.1566 18.3431 29.6569C19.8434 31.1571 21.8783 32 24 32C27.2567 32 30.0408 30.0561 31.2872 27.2665C31.5647 26.6455 31.0671 26 30.3869 26C29.9454 26 29.5598 26.2831 29.363 26.6783C28.382 28.6474 26.349 30 24 30C22.4087 30 20.8826 29.3679 19.7574 28.2426C18.6321 27.1174 18 25.5913 18 24C18 22.4087 18.6321 20.8826 19.7574 19.7574C20.8826 18.6321 22.4087 18 24 18C25.66 18 27.14 18.69 28.22 19.78L25 23H32V16L29.65 18.35Z" fill="white"/>
</svg>
