<svg width="48" height="48" viewBox="0 0 48 48" fill="none" xmlns="http://www.w3.org/2000/svg">
<rect width="48" height="48" rx="4" fill="#161D20"/>
<path d="M23.9998 20.0182C21.7999 20.0182 20.018 21.8001 20.018 24C20.018 26.2 21.7999 27.9819 23.9998 27.9819C26.1998 27.9819 27.9816 26.2 27.9816 24C27.9816 21.8001 26.1998 20.0182 23.9998 20.0182ZM33.8681 23.0046C33.3166 23.0046 32.8604 22.5872 32.7409 22.0488C31.9909 18.669 29.3308 16.009 25.9511 15.2589C25.4127 15.1394 24.9953 14.6833 24.9953 14.1317V14.0455C24.9953 13.4957 24.5496 13.05 23.9998 13.05C23.45 13.05 23.0044 13.4957 23.0044 14.0455V14.1317C23.0044 14.6833 22.5869 15.1394 22.0485 15.2589C18.6688 16.009 16.0087 18.669 15.2587 22.0488C15.1392 22.5872 14.683 23.0046 14.1315 23.0046H14.0453C13.4955 23.0046 13.0498 23.4503 13.0498 24C13.0498 24.5498 13.4955 24.9955 14.0453 24.9955H14.1315C14.683 24.9955 15.1392 25.4129 15.2587 25.9513C16.0087 29.3311 18.6688 31.9911 22.0485 32.7412C22.5869 32.8607 23.0044 33.3168 23.0044 33.8683V33.9546C23.0044 34.5044 23.45 34.95 23.9998 34.95C24.5496 34.95 24.9953 34.5044 24.9953 33.9546V33.8683C24.9953 33.3168 25.4127 32.8607 25.9511 32.7412C29.3308 31.9911 31.9909 29.3311 32.7409 25.9513C32.8604 25.4129 33.3166 24.9955 33.8681 24.9955H33.9544C34.5041 24.9955 34.9498 24.5498 34.9498 24C34.9498 23.4503 34.5041 23.0046 33.9544 23.0046H33.8681ZM23.9998 30.9682C20.1474 30.9682 17.0316 27.8525 17.0316 24C17.0316 20.1476 20.1474 17.0319 23.9998 17.0319C27.8522 17.0319 30.968 20.1476 30.968 24C30.968 27.8525 27.8522 30.9682 23.9998 30.9682Z" fill="white"/>
</svg>
