<svg width="48" height="48" viewBox="0 0 48 48" fill="none" xmlns="http://www.w3.org/2000/svg">
<rect width="48" height="48" rx="4" fill="#161D20"/>
<mask id="mask0_839_3246" style="mask-type:alpha" maskUnits="userSpaceOnUse" x="12" y="12" width="24" height="24">
<rect x="12" y="12" width="24" height="24" fill="#D9D9D9"/>
</mask>
<g mask="url(#mask0_839_3246)">
<path d="M20.375 28.25L25.425 26.8C25.7583 26.7 26.0458 26.5292 26.2875 26.2875C26.5292 26.0458 26.7 25.7583 26.8 25.425L28.25 20.375C28.3 20.1917 28.2542 20.0292 28.1125 19.8875C27.9708 19.7458 27.8083 19.7 27.625 19.75L22.575 21.2C22.2417 21.3 21.9542 21.4708 21.7125 21.7125C21.4708 21.9542 21.3 22.2417 21.2 22.575L19.75 27.625C19.7 27.8083 19.7458 27.9708 19.8875 28.1125C20.0292 28.2542 20.1917 28.3 20.375 28.25ZM24 25.5C23.5833 25.5 23.2292 25.3542 22.9375 25.0625C22.6458 24.7708 22.5 24.4167 22.5 24C22.5 23.5833 22.6458 23.2292 22.9375 22.9375C23.2292 22.6458 23.5833 22.5 24 22.5C24.4167 22.5 24.7708 22.6458 25.0625 22.9375C25.3542 23.2292 25.5 23.5833 25.5 24C25.5 24.4167 25.3542 24.7708 25.0625 25.0625C24.7708 25.3542 24.4167 25.5 24 25.5ZM24 34C22.6167 34 21.3167 33.7375 20.1 33.2125C18.8833 32.6875 17.825 31.975 16.925 31.075C16.025 30.175 15.3125 29.1167 14.7875 27.9C14.2625 26.6833 14 25.3833 14 24C14 22.6167 14.2625 21.3167 14.7875 20.1C15.3125 18.8833 16.025 17.825 16.925 16.925C17.825 16.025 18.8833 15.3125 20.1 14.7875C21.3167 14.2625 22.6167 14 24 14C25.3833 14 26.6833 14.2625 27.9 14.7875C29.1167 15.3125 30.175 16.025 31.075 16.925C31.975 17.825 32.6875 18.8833 33.2125 20.1C33.7375 21.3167 34 22.6167 34 24C34 25.3833 33.7375 26.6833 33.2125 27.9C32.6875 29.1167 31.975 30.175 31.075 31.075C30.175 31.975 29.1167 32.6875 27.9 33.2125C26.6833 33.7375 25.3833 34 24 34ZM24 32C26.2167 32 28.1042 31.2208 29.6625 29.6625C31.2208 28.1042 32 26.2167 32 24C32 21.7833 31.2208 19.8958 29.6625 18.3375C28.1042 16.7792 26.2167 16 24 16C21.7833 16 19.8958 16.7792 18.3375 18.3375C16.7792 19.8958 16 21.7833 16 24C16 26.2167 16.7792 28.1042 18.3375 29.6625C19.8958 31.2208 21.7833 32 24 32Z" fill="white"/>
</g>
</svg>
