<svg width="36" height="36" viewBox="0 0 36 36" fill="none" xmlns="http://www.w3.org/2000/svg">
<mask id="mask0_882_3539" style="mask-type:alpha" maskUnits="userSpaceOnUse" x="0" y="0" width="36" height="36">
<rect width="36" height="36" fill="#D9D9D9"/>
</mask>
<g mask="url(#mask0_882_3539)">
<path d="M12.15 31.8187C10.325 31.0312 8.7375 29.9625 7.3875 28.6125C6.0375 27.2625 4.96875 25.675 4.18125 23.85C3.39375 22.025 3 20.075 3 18C3 15.925 3.39375 13.975 4.18125 12.15C4.96875 10.325 6.0375 8.7375 7.3875 7.3875C8.7375 6.0375 10.325 4.96875 12.15 4.18125C13.975 3.39375 15.925 3 18 3C20.075 3 22.025 3.39375 23.85 4.18125C25.675 4.96875 27.2625 6.0375 28.6125 7.3875C29.9625 8.7375 31.0312 10.325 31.8187 12.15C32.6062 13.975 33 15.925 33 18C33 20.075 32.6062 22.025 31.8187 23.85C31.0312 25.675 29.9625 27.2625 28.6125 28.6125C27.2625 29.9625 25.675 31.0312 23.85 31.8187C22.025 32.6062 20.075 33 18 33C15.925 33 13.975 32.6062 12.15 31.8187ZM26.5125 26.5125C28.8375 24.1875 30 21.35 30 18C30 14.65 28.8375 11.8125 26.5125 9.4875C24.1875 7.1625 21.35 6 18 6C14.65 6 11.8125 7.1625 9.4875 9.4875C7.1625 11.8125 6 14.65 6 18C6 21.35 7.1625 24.1875 9.4875 26.5125C11.8125 28.8375 14.65 30 18 30C21.35 30 24.1875 28.8375 26.5125 26.5125ZM11.625 24.375C9.875 22.625 9 20.5 9 18C9 15.5 9.875 13.375 11.625 11.625C13.375 9.875 15.5 9 18 9C20.5 9 22.625 9.875 24.375 11.625C26.125 13.375 27 15.5 27 18C27 20.5 26.125 22.625 24.375 24.375C22.625 26.125 20.5 27 18 27C15.5 27 13.375 26.125 11.625 24.375ZM22.2375 22.2375C23.4125 21.0625 24 19.65 24 18C24 16.35 23.4125 14.9375 22.2375 13.7625C21.0625 12.5875 19.65 12 18 12C16.35 12 14.9375 12.5875 13.7625 13.7625C12.5875 14.9375 12 16.35 12 18C12 19.65 12.5875 21.0625 13.7625 22.2375C14.9375 23.4125 16.35 24 18 24C19.65 24 21.0625 23.4125 22.2375 22.2375ZM15.8813 20.1188C15.2938 19.5313 15 18.825 15 18C15 17.175 15.2938 16.4688 15.8813 15.8813C16.4688 15.2938 17.175 15 18 15C18.825 15 19.5313 15.2938 20.1188 15.8813C20.7063 16.4688 21 17.175 21 18C21 18.825 20.7063 19.5313 20.1188 20.1188C19.5313 20.7063 18.825 21 18 21C17.175 21 16.4688 20.7063 15.8813 20.1188Z" fill="#9654F4"/>
</g>
</svg>
