<svg width="24" height="24" viewBox="0 0 24 24" fill="none" xmlns="http://www.w3.org/2000/svg">
<mask id="mask0_167_11" style="mask-type:alpha" maskUnits="userSpaceOnUse" x="0" y="0" width="24" height="24">
<rect width="24" height="24" fill="#D9D9D9"/>
</mask>
<g mask="url(#mask0_167_11)">
<path d="M4.22501 18.9V10.025C4.22501 9.72498 4.28959 9.44373 4.41876 9.18123C4.54792 8.91873 4.73334 8.69998 4.97501 8.52498L10.875 4.09998C11.2083 3.84998 11.5833 3.72498 12 3.72498C12.4167 3.72498 12.7917 3.84998 13.125 4.09998L19.025 8.52498C19.2667 8.69998 19.4521 8.91873 19.5813 9.18123C19.7104 9.44373 19.775 9.72498 19.775 10.025V18.9C19.775 19.4166 19.5917 19.8583 19.225 20.225C18.8583 20.5916 18.4167 20.775 17.9 20.775H15C14.7417 20.775 14.5208 20.6833 14.3375 20.5C14.1542 20.3166 14.0625 20.0958 14.0625 19.8375V14.8125C14.0625 14.5541 13.9708 14.3333 13.7875 14.15C13.6042 13.9666 13.3833 13.875 13.125 13.875H10.875C10.6167 13.875 10.3958 13.9666 10.2125 14.15C10.0292 14.3333 9.93751 14.5541 9.93751 14.8125V19.8375C9.93751 20.0958 9.84584 20.3166 9.66251 20.5C9.47917 20.6833 9.25834 20.775 9.00001 20.775H6.10001C5.58334 20.775 5.14167 20.5916 4.77501 20.225C4.40834 19.8583 4.22501 19.4166 4.22501 18.9Z" fill="white"/>
</g>
</svg>
