<svg width="24" height="24" viewBox="0 0 24 24" fill="none" xmlns="http://www.w3.org/2000/svg">
<path d="M12.005 5.11407L20.1146 18.8833H3.89541L12.005 5.11407ZM2.03225 17.8249C1.20298 19.2325 2.23687 21 3.89541 21H20.1146C21.7731 21 22.807 19.2325 21.9777 17.8249L13.8681 4.05571C13.0389 2.6481 10.9711 2.6481 10.1418 4.05571L2.03225 17.8249ZM10.928 10.4164V12.5331C10.928 13.1152 11.4127 13.5915 12.005 13.5915C12.5973 13.5915 13.082 13.1152 13.082 12.5331V10.4164C13.082 9.83434 12.5973 9.35808 12.005 9.35808C11.4127 9.35808 10.928 9.83434 10.928 10.4164ZM10.928 15.7082H13.082V17.8249H10.928V15.7082Z" fill="currentColor"/>
</svg>
